<?xml version="1.0" encoding="UTF-8" standalone="no"?>
<svg
   xmlns:dc="http://purl.org/dc/elements/1.1/"
   xmlns:cc="http://creativecommons.org/ns#"
   xmlns:rdf="http://www.w3.org/1999/02/22-rdf-syntax-ns#"
   xmlns:svg="http://www.w3.org/2000/svg"
   xmlns="http://www.w3.org/2000/svg"
   xmlns:sodipodi="http://sodipodi.sourceforge.net/DTD/sodipodi-0.dtd"
   xmlns:inkscape="http://www.inkscape.org/namespaces/inkscape"
   width="8.8mm"
   height="5mm"
   viewBox="0 0 8.8 5"
   version="1.1"
   id="svg8"
   inkscape:version="1.0 (4035a4fb49, 2020-05-01)"
   sodipodi:docname="M-501331-6pin_PCB_2.svg">
  <defs
     id="defs2" />
  <sodipodi:namedview
     id="base"
     pagecolor="#ffffff"
     bordercolor="#666666"
     borderopacity="1.0"
     inkscape:pageopacity="0.0"
     inkscape:pageshadow="2"
     inkscape:zoom="16"
     inkscape:cx="16.758603"
     inkscape:cy="13.231499"
     inkscape:document-units="mm"
     inkscape:current-layer="svg8"
     inkscape:document-rotation="0"
     showgrid="true"
     inkscape:window-width="1920"
     inkscape:window-height="1009"
     inkscape:window-x="-8"
     inkscape:window-y="-8"
     inkscape:window-maximized="1" />
  <metadata
     id="metadata5">
    <rdf:RDF>
      <cc:Work
         rdf:about="">
        <dc:format>image/svg+xml</dc:format>
        <dc:type
           rdf:resource="http://purl.org/dc/dcmitype/StillImage" />
        <dc:title></dc:title>
      </cc:Work>
    </rdf:RDF>
  </metadata>
  <g
     id="silkscreen">
    <g
       style="font-size:1px;line-height:1.25;font-family:sans-serif;fill:#000000;fill-opacity:1;stroke-width:0.01;stroke-miterlimit:4;stroke-dasharray:none"
       id="txtVCC"
       transform="rotate(-90,0.1,0.1)"
       aria-label="VCC">
      <path
         id="path1048"
         style="font-style:normal;font-variant:normal;font-weight:normal;font-stretch:normal;font-size:1px;font-family:OCRA;-inkscape-font-specification:OCRA;fill:#000000;fill-opacity:1;stroke-width:0.01;stroke-miterlimit:4;stroke-dasharray:none"
         d="M -3.7433125,1.731 V 1.55 q 0,-0.02 0.014,-0.035 0.015,-0.015 0.036,-0.015 0.021,0 0.036,0.015 0.015,0.015 0.015,0.035 v 0.161 l 0.148,0.378 0.148,-0.378 V 1.55 q 0,-0.02 0.014,-0.035 0.015,-0.015 0.036,-0.015 0.021,0 0.036,0.015 0.015,0.015 0.015,0.035 v 0.18 l -0.202,0.518 q -0.013,0.032 -0.047,0.032 -0.035,0 -0.048,-0.032 z" />
      <path
         id="path1050"
         style="font-style:normal;font-variant:normal;font-weight:normal;font-stretch:normal;font-size:1px;font-family:OCRA;-inkscape-font-specification:OCRA;fill:#000000;fill-opacity:1;stroke-width:0.01;stroke-miterlimit:4;stroke-dasharray:none"
         d="m -3.0206563,1.89 q 0,-0.053 0.024,-0.103 l 0.101,-0.204 q 0.016,-0.036 0.053,-0.059 0.038,-0.024 0.083,-0.024 h 0.186 q 0.021,0 0.036,0.015 0.015,0.015 0.015,0.035 0,0.021 -0.015,0.036 -0.015,0.015 -0.036,0.015 h -0.186 q -0.031,0 -0.044,0.028 l -0.103,0.203 q -0.013,0.028 -0.013,0.058 0,0.03 0.013,0.058 l 0.103,0.203 q 0.013,0.028 0.044,0.028 h 0.186 q 0.021,0 0.036,0.015 0.015,0.015 0.015,0.035 0,0.021 -0.015,0.036 -0.015,0.015 -0.036,0.015 h -0.186 q -0.044,0 -0.081,-0.024 -0.036,-0.024 -0.054,-0.06 -0.074,-0.141 -0.102,-0.203 -0.024,-0.051 -0.024,-0.103 z" />
      <path
         id="path1052"
         style="font-style:normal;font-variant:normal;font-weight:normal;font-stretch:normal;font-size:1px;font-family:OCRA;-inkscape-font-specification:OCRA;fill:#000000;fill-opacity:1;stroke-width:0.01;stroke-miterlimit:4;stroke-dasharray:none"
         d="m -2.298,1.89 q 0,-0.053 0.024,-0.103 L -2.173,1.583 Q -2.157,1.547 -2.12,1.524 -2.082,1.5 -2.037,1.5 h 0.186 q 0.021,0 0.036,0.015 0.015,0.015 0.015,0.035 0,0.021 -0.015,0.036 -0.015,0.015 -0.036,0.015 h -0.186 q -0.031,0 -0.044,0.028 l -0.103,0.203 q -0.013,0.028 -0.013,0.058 0,0.03 0.013,0.058 l 0.103,0.203 q 0.013,0.028 0.044,0.028 h 0.186 q 0.021,0 0.036,0.015 Q -1.8,2.209 -1.8,2.229 -1.8,2.25 -1.815,2.265 -1.83,2.28 -1.851,2.28 H -2.037 Q -2.081,2.28 -2.118,2.256 -2.154,2.232 -2.172,2.196 -2.246,2.055 -2.274,1.993 -2.298,1.942 -2.298,1.89 Z" />
    </g>
    <rect
       style="fill:none;stroke:#000000;stroke-width:0.0524205;stroke-miterlimit:4;stroke-dasharray:none;stroke-opacity:1;"
       id="rect833"
       width="8.7975798"
       height="4.9975796"
       x="0.0012102684"
       y="0.0012102684" />
    <g
       inkscape:transform-center-y="-0.34726562"
       inkscape:transform-center-x="0.049609375"
       style="font-size:1px;line-height:1.25;font-family:sans-serif;stroke-width:0.01;stroke-miterlimit:4;stroke-dasharray:none"
       id="txtGND"
       transform="rotate(-90)"
       aria-label="GND">
      <path
         id="path1137"
         style="font-style:normal;font-variant:normal;font-weight:normal;font-stretch:normal;font-size:1px;font-family:OCRA;-inkscape-font-specification:OCRA;stroke-width:0.01;stroke-miterlimit:4;stroke-dasharray:none"
         d="M -3.9433126,3.128 V 2.857 q 0,-0.069 0.042,-0.123 l 0.136,-0.176 q 0.045,-0.058 0.12,-0.058 h 0.149 q 0.021,0 0.036,0.015 0.015,0.015 0.015,0.035 0,0.021 -0.015,0.036 -0.015,0.015 -0.036,0.015 h -0.149 q -0.025,0 -0.04,0.02 l -0.136,0.174 q -0.021,0.028 -0.021,0.062 v 0.271 q 0,0.021 0.015,0.036 0.015,0.015 0.035,0.015 h 0.195 q 0.02,0 0.035,-0.015 0.016,-0.015 0.016,-0.036 V 3.025 h -0.099 q -0.021,0 -0.036,-0.014 -0.014,-0.015 -0.014,-0.036 0,-0.021 0.014,-0.036 0.015,-0.015 0.036,-0.015 h 0.2 v 0.204 q 0,0.062 -0.045,0.107 -0.045,0.045 -0.107,0.045 h -0.195 q -0.063,0 -0.107,-0.044 -0.044,-0.045 -0.044,-0.108 z" />
      <path
         id="path1139"
         style="font-style:normal;font-variant:normal;font-weight:normal;font-stretch:normal;font-size:1px;font-family:OCRA;-inkscape-font-specification:OCRA;stroke-width:0.01;stroke-miterlimit:4;stroke-dasharray:none"
         d="M -3.2206563,3.229 V 2.5 h 0.133 l 0.264,0.602 V 2.55 q 0,-0.02 0.014,-0.035 0.015,-0.015 0.036,-0.015 0.021,0 0.036,0.015 0.015,0.015 0.015,0.035 v 0.73 h -0.134 l -0.263,-0.6 v 0.549 q 0,0.021 -0.015,0.036 -0.015,0.015 -0.036,0.015 -0.021,0 -0.036,-0.015 -0.014,-0.015 -0.014,-0.036 z" />
      <path
         id="path1141"
         style="font-style:normal;font-variant:normal;font-weight:normal;font-stretch:normal;font-size:1px;font-family:OCRA;-inkscape-font-specification:OCRA;stroke-width:0.01;stroke-miterlimit:4;stroke-dasharray:none"
         d="m -2.4980001,3.229 q 0,-0.02 0.014,-0.035 0.015,-0.015 0.036,-0.015 h 0.049 V 2.601 h -0.049 q -0.021,0 -0.036,-0.015 -0.014,-0.015 -0.014,-0.036 0,-0.02 0.014,-0.035 0.015,-0.015 0.036,-0.015 h 0.186 q 0.044,0 0.08,0.024 0.037,0.024 0.055,0.06 l 0.102,0.203 q 0.025,0.052 0.025,0.103 0,0.051 -0.025,0.103 l -0.101,0.204 q -0.016,0.036 -0.054,0.06 -0.037,0.023 -0.082,0.023 h -0.186 q -0.021,0 -0.036,-0.015 -0.014,-0.015 -0.014,-0.036 z m 0.2,-0.05 h 0.036 q 0.031,0 0.044,-0.028 l 0.103,-0.203 q 0.014,-0.034 0.014,-0.058 0,-0.03 -0.014,-0.058 l -0.103,-0.203 q -0.013,-0.028 -0.044,-0.028 h -0.036 z" />
    </g>
    <g
       inkscape:transform-center-y="-0.34726562"
       inkscape:transform-center-x="0.049609375"
       style="font-size:1px;line-height:1.25;font-family:sans-serif;stroke-width:0.01;stroke-miterlimit:4;stroke-dasharray:none"
       id="txtRST"
       transform="rotate(-90)"
       aria-label="RST">
      <path
         id="path1144"
         style="font-style:normal;font-variant:normal;font-weight:normal;font-stretch:normal;font-size:1px;font-family:OCRA;-inkscape-font-specification:OCRA;stroke-width:0.01;stroke-miterlimit:4;stroke-dasharray:none"
         d="m -3.8655361,7.2677761 v -0.729 h 0.346 q 0.062,0 0.107,0.045 0.045,0.045 0.045,0.107 v 0.052 q 0,0.062 -0.046,0.107 -0.045,0.045 -0.106,0.045 h -0.058 l 0.203,0.348 q 0.007,0.014 0.007,0.025 0,0.021 -0.015,0.036 -0.015,0.015 -0.036,0.015 -0.029,0 -0.044,-0.025 l -0.233,-0.399 h -0.069 v 0.373 q 0,0.021 -0.015,0.036 -0.015,0.015 -0.036,0.015 -0.021,0 -0.036,-0.015 -0.014,-0.015 -0.014,-0.036 z m 0.101,-0.474 h 0.245 q 0.02,0 0.035,-0.015 0.016,-0.016 0.016,-0.036 v -0.052 q 0,-0.021 -0.016,-0.036 -0.015,-0.015 -0.035,-0.015 h -0.245 z" />
      <path
         id="path1146"
         style="font-style:normal;font-variant:normal;font-weight:normal;font-stretch:normal;font-size:1px;font-family:OCRA;-inkscape-font-specification:OCRA;stroke-width:0.01;stroke-miterlimit:4;stroke-dasharray:none"
         d="m -3.1428799,7.1837761 q 0,-0.021 0.014,-0.036 0.015,-0.015 0.036,-0.015 0.021,0 0.036,0.015 0.015,0.015 0.015,0.036 0,0.014 0.01,0.024 0.01,0.01 0.024,0.01 h 0.249 q 0.013,0 0.013,-0.013 l -0.374,-0.482 q -0.023,-0.032 -0.023,-0.07 v -0.003 q 0,-0.045 0.033,-0.078 0.034,-0.033 0.08,-0.033 h 0.249 q 0.055,0 0.095,0.04 0.041,0.04 0.041,0.095 0,0.021 -0.015,0.036 -0.015,0.015 -0.036,0.015 -0.021,0 -0.036,-0.015 -0.014,-0.015 -0.014,-0.036 0,-0.013 -0.011,-0.023 -0.01,-0.011 -0.024,-0.011 h -0.249 q -0.012,0 -0.012,0.01 v 0.003 0.004 l 0.372,0.478 q 0.025,0.03 0.025,0.07 -0.002,0.047 -0.035,0.081 -0.032,0.033 -0.079,0.033 h -0.249 q -0.055,0 -0.095,-0.04 -0.04,-0.04 -0.04,-0.095 z" />
      <path
         id="path1148"
         style="font-style:normal;font-variant:normal;font-weight:normal;font-stretch:normal;font-size:1px;font-family:OCRA;-inkscape-font-specification:OCRA;stroke-width:0.01;stroke-miterlimit:4;stroke-dasharray:none"
         d="m -2.4202236,6.6737761 v -0.135 h 0.498 v 0.135 q 0,0.021 -0.015,0.036 -0.015,0.015 -0.036,0.015 -0.021,0 -0.036,-0.015 -0.014,-0.015 -0.014,-0.036 v -0.034 h -0.098 v 0.628 q 0,0.021 -0.015,0.036 -0.015,0.015 -0.035,0.015 -0.021,0 -0.036,-0.015 -0.015,-0.015 -0.015,-0.036 v -0.628 h -0.097 v 0.034 q 0,0.021 -0.015,0.036 -0.015,0.015 -0.036,0.015 -0.021,0 -0.036,-0.015 -0.014,-0.015 -0.014,-0.036 z" />
    </g>
    <g
       inkscape:transform-center-y="-0.34726562"
       inkscape:transform-center-x="0.049609375"
       style="font-size:1px;line-height:1.25;font-family:sans-serif;stroke-width:0.01;stroke-miterlimit:4;stroke-dasharray:none"
       id="txtSCK"
       transform="rotate(-90)"
       aria-label="SCK">
      <path
         id="path1151"
         style="font-style:normal;font-variant:normal;font-weight:normal;font-stretch:normal;font-size:1px;font-family:OCRA;-inkscape-font-specification:OCRA;stroke-width:0.01;stroke-miterlimit:4;stroke-dasharray:none"
         d="m -3.9433126,6.1450002 q 0,-0.021 0.014,-0.036 0.015,-0.015 0.036,-0.015 0.021,0 0.036,0.015 0.015,0.015 0.015,0.036 0,0.014 0.01,0.024 0.01,0.01 0.024,0.01 h 0.249 q 0.013,0 0.013,-0.013 l -0.374,-0.482 q -0.023,-0.032 -0.023,-0.07 v -0.003 q 0,-0.045 0.033,-0.078 0.034,-0.033 0.08,-0.033 h 0.249 q 0.055,0 0.095,0.04 0.041,0.04 0.041,0.095 0,0.021 -0.015,0.036 -0.015,0.015 -0.036,0.015 -0.021,0 -0.036,-0.015 -0.014,-0.015 -0.014,-0.036 0,-0.013 -0.011,-0.023 -0.01,-0.011 -0.024,-0.011 h -0.249 q -0.012,0 -0.012,0.01 v 0.003 0.004 l 0.372,0.478 q 0.025,0.03 0.025,0.07 -0.002,0.047 -0.035,0.081 -0.032,0.033 -0.079,0.033 h -0.249 q -0.055,0 -0.095,-0.04 -0.04,-0.04 -0.04,-0.095 z" />
      <path
         id="path1153"
         style="font-style:normal;font-variant:normal;font-weight:normal;font-stretch:normal;font-size:1px;font-family:OCRA;-inkscape-font-specification:OCRA;stroke-width:0.01;stroke-miterlimit:4;stroke-dasharray:none"
         d="m -3.2206563,5.8900002 q 0,-0.053 0.024,-0.103 l 0.101,-0.204 q 0.016,-0.036 0.053,-0.059 0.038,-0.024 0.083,-0.024 h 0.186 q 0.021,0 0.036,0.015 0.015,0.015 0.015,0.035 0,0.021 -0.015,0.036 -0.015,0.015 -0.036,0.015 h -0.186 q -0.031,0 -0.044,0.028 l -0.103,0.203 q -0.013,0.028 -0.013,0.058 0,0.03 0.013,0.058 l 0.103,0.203 q 0.013,0.028 0.044,0.028 h 0.186 q 0.021,0 0.036,0.015 0.015,0.015 0.015,0.035 0,0.021 -0.015,0.036 -0.015,0.015 -0.036,0.015 h -0.186 q -0.044,0 -0.081,-0.024 -0.036,-0.024 -0.054,-0.06 -0.074,-0.141 -0.102,-0.203 -0.024,-0.051 -0.024,-0.103 z" />
      <path
         id="path1155"
         style="font-style:normal;font-variant:normal;font-weight:normal;font-stretch:normal;font-size:1px;font-family:OCRA;-inkscape-font-specification:OCRA;stroke-width:0.01;stroke-miterlimit:4;stroke-dasharray:none"
         d="m -2.4980001,6.2290002 v -0.679 q 0,-0.02 0.014,-0.035 0.015,-0.015 0.036,-0.015 0.021,0 0.036,0.015 0.015,0.015 0.015,0.035 v 0.23 l 0.313,-0.268 q 0.015,-0.012 0.033,-0.012 0.021,0 0.036,0.015 0.015,0.015 0.015,0.035 0,0.024 -0.018,0.039 l -0.352,0.301 0.352,0.301 q 0.018,0.015 0.018,0.038 0,0.021 -0.015,0.036 -0.015,0.015 -0.036,0.015 -0.018,0 -0.033,-0.012 l -0.313,-0.268 v 0.229 q 0,0.021 -0.015,0.036 -0.015,0.015 -0.036,0.015 -0.021,0 -0.036,-0.015 -0.014,-0.015 -0.014,-0.036 z" />
    </g>
    <g
       inkscape:transform-center-y="-0.34726562"
       inkscape:transform-center-x="0.049609375"
       style="font-size:1px;line-height:1.25;font-family:sans-serif;stroke-width:0.01;stroke-miterlimit:4;stroke-dasharray:none"
       id="txtMISO"
       transform="rotate(-90)"
       aria-label="MISO">
      <path
         id="path1158"
         style="font-style:normal;font-variant:normal;font-weight:normal;font-stretch:normal;font-size:1px;font-family:OCRA;-inkscape-font-specification:OCRA;stroke-width:0.01;stroke-miterlimit:4;stroke-dasharray:none"
         d="m -4.6659688,4.2290002 v -0.729 h 0.126 l 0.123,0.175 0.122,-0.175 h 0.127 v 0.729 q 0,0.021 -0.015,0.036 -0.015,0.015 -0.036,0.015 -0.021,0 -0.036,-0.015 -0.014,-0.015 -0.014,-0.036 v -0.59 l -0.098,0.14 v 0.026 q 0,0.021 -0.015,0.036 -0.015,0.015 -0.035,0.015 -0.021,0 -0.036,-0.015 -0.015,-0.015 -0.015,-0.036 v -0.026 l -0.097,-0.138 v 0.588 q 0,0.021 -0.015,0.036 -0.015,0.015 -0.036,0.015 -0.021,0 -0.036,-0.015 -0.014,-0.015 -0.014,-0.036 z" />
      <path
         id="path1160"
         style="font-style:normal;font-variant:normal;font-weight:normal;font-stretch:normal;font-size:1px;font-family:OCRA;-inkscape-font-specification:OCRA;stroke-width:0.01;stroke-miterlimit:4;stroke-dasharray:none"
         d="m -3.9433126,4.2290002 q 0,-0.02 0.014,-0.035 0.015,-0.015 0.036,-0.015 h 0.148 v -0.578 h -0.148 q -0.021,0 -0.036,-0.015 -0.014,-0.015 -0.014,-0.036 0,-0.02 0.014,-0.035 0.015,-0.015 0.036,-0.015 h 0.397 q 0.021,0 0.036,0.015 0.015,0.015 0.015,0.035 0,0.021 -0.015,0.036 -0.015,0.015 -0.036,0.015 h -0.148 v 0.578 h 0.148 q 0.021,0 0.036,0.015 0.015,0.015 0.015,0.035 0,0.021 -0.015,0.036 -0.015,0.015 -0.036,0.015 h -0.397 q -0.021,0 -0.036,-0.015 -0.014,-0.015 -0.014,-0.036 z" />
      <path
         id="path1162"
         style="font-style:normal;font-variant:normal;font-weight:normal;font-stretch:normal;font-size:1px;font-family:OCRA;-inkscape-font-specification:OCRA;stroke-width:0.01;stroke-miterlimit:4;stroke-dasharray:none"
         d="m -3.2206563,4.1450002 q 0,-0.021 0.014,-0.036 0.015,-0.015 0.036,-0.015 0.021,0 0.036,0.015 0.015,0.015 0.015,0.036 0,0.014 0.01,0.024 0.01,0.01 0.024,0.01 h 0.249 q 0.013,0 0.013,-0.013 l -0.374,-0.482 q -0.023,-0.032 -0.023,-0.07 v -0.003 q 0,-0.045 0.033,-0.078 0.034,-0.033 0.08,-0.033 h 0.249 q 0.055,0 0.095,0.04 0.041,0.04 0.041,0.095 0,0.021 -0.015,0.036 -0.015,0.015 -0.036,0.015 -0.021,0 -0.036,-0.015 -0.014,-0.015 -0.014,-0.036 0,-0.013 -0.011,-0.023 -0.01,-0.011 -0.024,-0.011 h -0.249 q -0.012,0 -0.012,0.01 v 0.003 0.004 l 0.372,0.478 q 0.025,0.03 0.025,0.07 -0.002,0.047 -0.035,0.081 -0.032,0.033 -0.079,0.033 h -0.249 q -0.055,0 -0.095,-0.04 -0.04,-0.04 -0.04,-0.095 z" />
      <path
         id="path1164"
         style="font-style:normal;font-variant:normal;font-weight:normal;font-stretch:normal;font-size:1px;font-family:OCRA;-inkscape-font-specification:OCRA;stroke-width:0.01;stroke-miterlimit:4;stroke-dasharray:none"
         d="m -2.4980001,3.8900002 q 0,-0.053 0.024,-0.103 l 0.107,-0.215 q 0.016,-0.031 0.047,-0.051 0.032,-0.021 0.07,-0.021 0.039,0 0.07,0.021 0.032,0.02 0.048,0.051 l 0.107,0.215 q 0.025,0.052 0.025,0.103 0,0.051 -0.025,0.103 l -0.107,0.215 q -0.016,0.031 -0.048,0.052 -0.031,0.02 -0.07,0.02 -0.038,0 -0.07,-0.02 -0.031,-0.021 -0.047,-0.052 l -0.107,-0.215 q -0.024,-0.046 -0.024,-0.103 z m 0.114,-0.058 q -0.013,0.028 -0.013,0.058 0,0.03 0.013,0.058 l 0.108,0.214 q 0.008,0.017 0.026,0.017 0.02,0 0.028,-0.016 l 0.107,-0.215 q 0.014,-0.034 0.014,-0.058 0,-0.03 -0.014,-0.058 l -0.108,-0.213 q -0.008,-0.018 -0.027,-0.018 -0.017,0 -0.026,0.018 z" />
    </g>
    <g
       inkscape:transform-center-y="-0.34726562"
       inkscape:transform-center-x="0.049609375"
       style="font-size:1px;line-height:1.25;font-family:sans-serif;stroke-width:0.01;stroke-miterlimit:4;stroke-dasharray:none"
       id="txtMOSI"
       transform="rotate(-90)"
       aria-label="MOSI">
      <path
         id="path1167"
         style="font-style:normal;font-variant:normal;font-weight:normal;font-stretch:normal;font-size:1px;font-family:OCRA;-inkscape-font-specification:OCRA;stroke-width:0.01;stroke-miterlimit:4;stroke-dasharray:none"
         d="m -4.6659688,5.2290002 v -0.729 h 0.126 l 0.123,0.175 0.122,-0.175 h 0.127 v 0.729 q 0,0.021 -0.015,0.036 -0.015,0.015 -0.036,0.015 -0.021,0 -0.036,-0.015 -0.014,-0.015 -0.014,-0.036 v -0.59 l -0.098,0.14 v 0.026 q 0,0.021 -0.015,0.036 -0.015,0.015 -0.035,0.015 -0.021,0 -0.036,-0.015 -0.015,-0.015 -0.015,-0.036 v -0.026 l -0.097,-0.138 v 0.588 q 0,0.021 -0.015,0.036 -0.015,0.015 -0.036,0.015 -0.021,0 -0.036,-0.015 -0.014,-0.015 -0.014,-0.036 z" />
      <path
         id="path1169"
         style="font-style:normal;font-variant:normal;font-weight:normal;font-stretch:normal;font-size:1px;font-family:OCRA;-inkscape-font-specification:OCRA;stroke-width:0.01;stroke-miterlimit:4;stroke-dasharray:none"
         d="m -3.9433126,4.8900002 q 0,-0.053 0.024,-0.103 l 0.107,-0.215 q 0.016,-0.031 0.047,-0.051 0.032,-0.021 0.07,-0.021 0.039,0 0.07,0.021 0.032,0.02 0.048,0.051 l 0.107,0.215 q 0.025,0.052 0.025,0.103 0,0.051 -0.025,0.103 l -0.107,0.215 q -0.016,0.031 -0.048,0.052 -0.031,0.02 -0.07,0.02 -0.038,0 -0.07,-0.02 -0.031,-0.021 -0.047,-0.052 l -0.107,-0.215 q -0.024,-0.046 -0.024,-0.103 z m 0.114,-0.058 q -0.013,0.028 -0.013,0.058 0,0.03 0.013,0.058 l 0.108,0.214 q 0.008,0.017 0.026,0.017 0.02,0 0.028,-0.016 l 0.107,-0.215 q 0.014,-0.034 0.014,-0.058 0,-0.03 -0.014,-0.058 l -0.108,-0.213 q -0.008,-0.018 -0.027,-0.018 -0.017,0 -0.026,0.018 z" />
      <path
         id="path1171"
         style="font-style:normal;font-variant:normal;font-weight:normal;font-stretch:normal;font-size:1px;font-family:OCRA;-inkscape-font-specification:OCRA;stroke-width:0.01;stroke-miterlimit:4;stroke-dasharray:none"
         d="m -3.2206563,5.1450002 q 0,-0.021 0.014,-0.036 0.015,-0.015 0.036,-0.015 0.021,0 0.036,0.015 0.015,0.015 0.015,0.036 0,0.014 0.01,0.024 0.01,0.01 0.024,0.01 h 0.249 q 0.013,0 0.013,-0.013 l -0.374,-0.482 q -0.023,-0.032 -0.023,-0.07 v -0.003 q 0,-0.045 0.033,-0.078 0.034,-0.033 0.08,-0.033 h 0.249 q 0.055,0 0.095,0.04 0.041,0.04 0.041,0.095 0,0.021 -0.015,0.036 -0.015,0.015 -0.036,0.015 -0.021,0 -0.036,-0.015 -0.014,-0.015 -0.014,-0.036 0,-0.013 -0.011,-0.023 -0.01,-0.011 -0.024,-0.011 h -0.249 q -0.012,0 -0.012,0.01 v 0.003 0.004 l 0.372,0.478 q 0.025,0.03 0.025,0.07 -0.002,0.047 -0.035,0.081 -0.032,0.033 -0.079,0.033 h -0.249 q -0.055,0 -0.095,-0.04 -0.04,-0.04 -0.04,-0.095 z" />
      <path
         id="path1173"
         style="font-style:normal;font-variant:normal;font-weight:normal;font-stretch:normal;font-size:1px;font-family:OCRA;-inkscape-font-specification:OCRA;stroke-width:0.01;stroke-miterlimit:4;stroke-dasharray:none"
         d="m -2.4980001,5.2290002 q 0,-0.02 0.014,-0.035 0.015,-0.015 0.036,-0.015 h 0.148 v -0.578 h -0.148 q -0.021,0 -0.036,-0.015 -0.014,-0.015 -0.014,-0.036 0,-0.02 0.014,-0.035 0.015,-0.015 0.036,-0.015 h 0.397 q 0.021,0 0.036,0.015 0.015,0.015 0.015,0.035 0,0.021 -0.015,0.036 -0.015,0.015 -0.036,0.015 h -0.148 v 0.578 h 0.148 q 0.021,0 0.036,0.015 0.015,0.015 0.015,0.035 0,0.021 -0.015,0.036 -0.015,0.015 -0.036,0.015 h -0.397 q -0.021,0 -0.036,-0.015 -0.014,-0.015 -0.014,-0.036 z" />
    </g>
  </g>
  <g
     id="copper1">
    <g
       id="copper0"
       transform="translate(1.65)">
      <rect
         y="2.4000001"
         x="-1.65"
         height="1.8000001"
         width="1.2"
         id="connector8pin"
         style="fill:#ffbf00;stroke-width:0.264999" />
      <rect
         style="fill:#ffbf00;stroke-width:0.264999"
         id="connector7pin"
         width="1.2"
         height="1.8"
         x="5.9499998"
         y="2.4000001" />
      <rect
         style="fill:#ffbf00;stroke-width:0.265;stroke-miterlimit:4;stroke-dasharray:none"
         id="connector6pin"
         width="0.5"
         height="1.65"
         x="5"
         y="0" />
      <rect
         style="fill:#ffbf00;stroke-width:0.264999"
         id="connector5pin"
         width="0.5"
         height="1.65"
         x="4"
         y="0" />
      <rect
         style="fill:#ffbf00;stroke-width:0.264999"
         id="connector4pin"
         width="0.5"
         height="1.65"
         x="3"
         y="0" />
      <rect
         style="fill:#ffbf00;stroke-width:0.264999"
         id="connector3pin"
         width="0.5"
         height="1.65"
         x="2"
         y="0" />
      <rect
         style="fill:#ffbf00;stroke-width:0.264999"
         id="connector2pin"
         width="0.5"
         height="1.65"
         x="1"
         y="0" />
      <rect
         y="0"
         x="0"
         height="1.65"
         width="0.5"
         id="connector1pin"
         style="fill:#ffbf00;stroke-width:0.264999" />
    </g>
  </g>
</svg>
