<?xml version="1.0" encoding="UTF-8" standalone="no"?>
<svg
   xmlns:dc="http://purl.org/dc/elements/1.1/"
   xmlns:cc="http://creativecommons.org/ns#"
   xmlns:rdf="http://www.w3.org/1999/02/22-rdf-syntax-ns#"
   xmlns:svg="http://www.w3.org/2000/svg"
   xmlns="http://www.w3.org/2000/svg"
   xmlns:sodipodi="http://sodipodi.sourceforge.net/DTD/sodipodi-0.dtd"
   xmlns:inkscape="http://www.inkscape.org/namespaces/inkscape"
   width="8.8mm"
   height="5mm"
   viewBox="0 0 8.8 5"
   version="1.1"
   id="svg8"
   inkscape:version="1.0 (4035a4fb49, 2020-05-01)"
   sodipodi:docname="M-501331-6pin_Board.svg">
  <defs
     id="defs2" />
  <sodipodi:namedview
     id="base"
     pagecolor="#ffffff"
     bordercolor="#666666"
     borderopacity="1.0"
     inkscape:pageopacity="0.0"
     inkscape:pageshadow="2"
     inkscape:zoom="32"
     inkscape:cx="17.815955"
     inkscape:cy="8.3469046"
     inkscape:document-units="mm"
     inkscape:current-layer="silkscreen"
     inkscape:document-rotation="0"
     showgrid="true"
     inkscape:window-width="1920"
     inkscape:window-height="1009"
     inkscape:window-x="-8"
     inkscape:window-y="-8"
     inkscape:window-maximized="1" />
  <metadata
     id="metadata5">
    <rdf:RDF>
      <cc:Work
         rdf:about="">
        <dc:format>image/svg+xml</dc:format>
        <dc:type
           rdf:resource="http://purl.org/dc/dcmitype/StillImage" />
        <dc:title />
      </cc:Work>
    </rdf:RDF>
  </metadata>
  <g
     id="silkscreen">
    <g
       aria-label="VCC"
       transform="matrix(0,-1.0664113,0.93772446,0,0,0)"
       id="txtVCC"
       style="font-size:0.73889px;line-height:1.25;font-family:sans-serif;stroke-width:0.217043">
      <path
         d="M -3.2573041,1.8879076 V 1.7394302 q 0,-0.016406 0.011484,-0.028711 0.012305,-0.012305 0.029531,-0.012305 0.017227,0 0.029531,0.012305 0.012305,0.012305 0.012305,0.028711 v 0.132071 l 0.1214069,0.3100799 0.121407,-0.3100799 v -0.132071 q 0,-0.016406 0.011484,-0.028711 0.012305,-0.012305 0.029531,-0.012305 0.017227,0 0.029531,0.012305 0.012305,0.012305 0.012305,0.028711 v 0.1476571 l -0.1657041,0.4249242 q -0.010664,0.02625 -0.038555,0.02625 -0.028711,0 -0.039375,-0.02625 z"
         style="font-style:normal;font-variant:normal;font-weight:normal;font-stretch:normal;font-size:0.820317px;font-family:OCRA;-inkscape-font-specification:OCRA;stroke-width:0.217043"
         id="path1014" />
      <path
         d="m -2.6644969,2.018338 q 0,-0.043477 0.019688,-0.084493 l 0.082852,-0.1673446 q 0.013125,-0.029531 0.043477,-0.048399 0.031172,-0.019688 0.068086,-0.019688 h 0.152579 q 0.017227,0 0.029531,0.012305 0.012305,0.012305 0.012305,0.028711 0,0.017227 -0.012305,0.029531 -0.012305,0.012305 -0.029531,0.012305 h -0.152579 q -0.02543,0 -0.036094,0.022969 l -0.084493,0.1665243 q -0.010664,0.022969 -0.010664,0.047578 0,0.024609 0.010664,0.047578 l 0.084493,0.1665243 q 0.010664,0.022969 0.036094,0.022969 h 0.152579 q 0.017227,0 0.029531,0.012305 0.012305,0.012305 0.012305,0.028711 0,0.017227 -0.012305,0.029531 -0.012305,0.012305 -0.029531,0.012305 h -0.152579 q -0.036094,0 -0.066446,-0.019688 -0.029531,-0.019688 -0.044297,-0.049219 -0.060703,-0.1156647 -0.083672,-0.1665244 -0.019688,-0.041836 -0.019688,-0.084493 z"
         style="font-style:normal;font-variant:normal;font-weight:normal;font-stretch:normal;font-size:0.820317px;font-family:OCRA;-inkscape-font-specification:OCRA;stroke-width:0.217043"
         id="path1016" />
      <path
         d="m -2.0716897,2.018338 q 0,-0.043477 0.019688,-0.084493 l 0.082852,-0.1673446 q 0.013125,-0.029531 0.043477,-0.048399 0.031172,-0.019688 0.068086,-0.019688 h 0.1525789 q 0.017227,0 0.029531,0.012305 0.012305,0.012305 0.012305,0.028711 0,0.017227 -0.012305,0.029531 -0.012305,0.012305 -0.029531,0.012305 H -1.857587 q -0.02543,0 -0.036094,0.022969 l -0.084493,0.1665243 q -0.010664,0.022969 -0.010664,0.047578 0,0.024609 0.010664,0.047578 l 0.084493,0.1665243 q 0.010664,0.022969 0.036094,0.022969 h 0.1525789 q 0.017227,0 0.029531,0.012305 0.012305,0.012305 0.012305,0.028711 0,0.017227 -0.012305,0.029531 -0.012305,0.012305 -0.029531,0.012305 H -1.857587 q -0.036094,0 -0.066446,-0.019688 -0.029531,-0.019688 -0.044297,-0.049219 -0.060704,-0.1156647 -0.083672,-0.1665244 -0.019688,-0.041836 -0.019688,-0.084493 z"
         style="font-style:normal;font-variant:normal;font-weight:normal;font-stretch:normal;font-size:0.820317px;font-family:OCRA;-inkscape-font-specification:OCRA;stroke-width:0.217043"
         id="path1018" />
    </g>
    <g
       aria-label="GND"
       transform="matrix(0,-1.0664113,0.93772449,0,0,0)"
       id="txtGND"
       style="font-size:0.738889px;line-height:1.25;font-family:sans-serif;stroke-width:0.217043">
      <path
         d="M -3.2573041,3.2753119 V 3.053006 q 0,-0.056602 0.034453,-0.100899 l 0.1115631,-0.1443758 q 0.036914,-0.047578 0.098438,-0.047578 h 0.1222272 q 0.017227,0 0.029531,0.012305 0.012305,0.012305 0.012305,0.028711 0,0.017227 -0.012305,0.029531 -0.012305,0.012305 -0.029531,0.012305 h -0.1222272 q -0.020508,0 -0.032813,0.016406 l -0.1115631,0.1427352 q -0.017227,0.022969 -0.017227,0.05086 v 0.2223059 q 0,0.017227 0.012305,0.029531 0.012305,0.012305 0.028711,0.012305 h 0.1599618 q 0.016406,0 0.028711,-0.012305 0.013125,-0.012305 0.013125,-0.029531 v -0.084493 h -0.081211 q -0.017227,0 -0.029531,-0.011484 -0.011485,-0.012305 -0.011485,-0.029531 0,-0.017227 0.011485,-0.029531 0.012305,-0.012305 0.029531,-0.012305 h 0.1640634 v 0.1673446 q 0,0.05086 -0.036914,0.087774 -0.036914,0.036914 -0.087774,0.036914 h -0.1599618 q -0.05168,0 -0.087774,-0.036094 -0.036094,-0.036914 -0.036094,-0.088594 z"
         style="font-style:normal;font-variant:normal;font-weight:normal;font-stretch:normal;font-size:0.820317px;font-family:OCRA;-inkscape-font-specification:OCRA;stroke-width:0.217043"
         id="path1021" />
      <path
         d="m -2.6644969,3.3581639 v -0.598011 h 0.1091021 l 0.2165637,0.4938308 v -0.452815 q 0,-0.016406 0.011485,-0.028711 0.012305,-0.012305 0.029531,-0.012305 0.017227,0 0.029531,0.012305 0.012305,0.012305 0.012305,0.028711 V 3.4000001 H -2.3659015 L -2.5816449,2.9078099 v 0.450354 q 0,0.017227 -0.012305,0.029531 -0.012305,0.012305 -0.029531,0.012305 -0.017227,0 -0.029531,-0.012305 -0.011484,-0.012305 -0.011484,-0.029531 z"
         style="font-style:normal;font-variant:normal;font-weight:normal;font-stretch:normal;font-size:0.820317px;font-family:OCRA;-inkscape-font-specification:OCRA;stroke-width:0.217043"
         id="path1023" />
      <path
         d="m -2.0716897,3.3581639 q 0,-0.016406 0.011484,-0.028711 0.012305,-0.012305 0.029531,-0.012305 h 0.040196 V 2.8430049 h -0.040196 q -0.017227,0 -0.029531,-0.012305 -0.011484,-0.012305 -0.011484,-0.029531 0,-0.016406 0.011484,-0.028711 0.012305,-0.012305 0.029531,-0.012305 h 0.152579 q 0.036094,0 0.065625,0.019688 0.030352,0.019688 0.045117,0.049219 l 0.083672,0.1665243 q 0.020508,0.042657 0.020508,0.084493 0,0.041836 -0.020508,0.084493 l -0.082852,0.1673447 q -0.013125,0.029531 -0.044297,0.049219 -0.030352,0.018867 -0.067266,0.018867 h -0.152579 q -0.017227,0 -0.029531,-0.012305 -0.011484,-0.012305 -0.011484,-0.029531 z m 0.1640634,-0.041016 h 0.029531 q 0.02543,0 0.036094,-0.022969 l 0.084493,-0.1665243 q 0.011484,-0.027891 0.011484,-0.047578 0,-0.024609 -0.011484,-0.047578 L -1.842001,2.8659737 q -0.010664,-0.022969 -0.036094,-0.022969 h -0.029531 z"
         style="font-style:normal;font-variant:normal;font-weight:normal;font-stretch:normal;font-size:0.820317px;font-family:OCRA;-inkscape-font-specification:OCRA;stroke-width:0.217043"
         id="path1025" />
    </g>
    <g
       aria-label="DEBUG"
       id="txtDEBUG"
       style="font-size:1.15616px;line-height:1.25;font-family:sans-serif;stroke-width:0.115616;stroke-miterlimit:4;stroke-dasharray:none"
       transform="translate(0,0.1018046)">
      <path
         d="m 2.5306462,4.741036 q 0,-0.023123 0.016186,-0.040466 0.017342,-0.017342 0.041622,-0.017342 H 2.645106 V 4.0149676 H 2.588454 q -0.024279,0 -0.041622,-0.017342 -0.016186,-0.017342 -0.016186,-0.041622 0,-0.023123 0.016186,-0.040466 0.017342,-0.017342 0.041622,-0.017342 h 0.2150457 q 0.050871,0 0.092493,0.027748 0.042778,0.027748 0.063589,0.06937 l 0.1179284,0.2347005 q 0.028904,0.06012 0.028904,0.1190845 0,0.058964 -0.028904,0.1190845 L 2.9607377,4.7040389 q -0.018499,0.041622 -0.062433,0.06937 -0.042778,0.026592 -0.094805,0.026592 H 2.5884542 q -0.024279,0 -0.041622,-0.017342 -0.016186,-0.017342 -0.016186,-0.041623 z m 0.231232,-0.057808 h 0.041622 q 0.035841,0 0.050871,-0.032372 L 2.9734555,4.4161551 q 0.016186,-0.039309 0.016186,-0.067057 0,-0.034685 -0.016186,-0.067057 L 2.854371,4.04734 Q 2.839341,4.014968 2.8035,4.014968 H 2.761878 Z"
         style="font-style:normal;font-variant:normal;font-weight:normal;font-stretch:normal;font-size:1.15616px;font-family:OCRA;-inkscape-font-specification:OCRA;stroke-width:0.306382;stroke-miterlimit:4;stroke-dasharray:none"
         id="path915" />
      <path
         d="M 3.3661524,4.8000002 V 3.8981954 H 3.882956 q 0.024279,0 0.041622,0.017342 0.017342,0.017342 0.017342,0.040466 0,0.024279 -0.017342,0.041622 -0.017342,0.017342 -0.041622,0.017342 H 3.4829246 v 0.275166 h 0.1711117 q 0.023123,0 0.040466,0.017342 0.017342,0.017342 0.017342,0.041622 0,0.024279 -0.017342,0.041622 -0.017342,0.016186 -0.040466,0.016186 H 3.4829246 V 4.683228 H 3.882956 q 0.024279,0 0.041622,0.017342 0.017342,0.017342 0.017342,0.040466 0,0.024279 -0.017342,0.041622 Q 3.907236,4.8 3.882956,4.8 Z"
         style="font-style:normal;font-variant:normal;font-weight:normal;font-stretch:normal;font-size:1.15616px;font-family:OCRA;-inkscape-font-specification:OCRA;stroke-width:0.306382;stroke-miterlimit:4;stroke-dasharray:none"
         id="path917" />
      <path
         d="M 4.2016587,4.8000002 V 3.8981954 h 0.3422234 q 0.094805,0 0.1641747,0.06937 0.06937,0.06937 0.06937,0.1641747 v 0.042778 q 0,0.1028983 -0.080931,0.1745802 0.080931,0.071682 0.080931,0.1745802 v 0.042778 q 0,0.094805 -0.06937,0.1641747 -0.06937,0.06937 -0.1641747,0.06937 z M 4.3184309,4.683228 h 0.2254512 q 0.047402,0 0.082087,-0.034685 0.034685,-0.035841 0.034685,-0.082087 V 4.523678 q 0,-0.047403 -0.034685,-0.082087 Q 4.5912841,4.406906 4.5438821,4.406906 H 4.3184309 Z m 0,-0.3930944 h 0.2254512 q 0.047402,0 0.082087,-0.034685 0.034685,-0.034685 0.034685,-0.080931 v -0.042778 q 0,-0.046246 -0.034685,-0.080931 -0.034685,-0.035841 -0.082087,-0.035841 H 4.3184309 Z"
         style="font-style:normal;font-variant:normal;font-weight:normal;font-stretch:normal;font-size:1.15616px;font-family:OCRA;-inkscape-font-specification:OCRA;stroke-width:0.306382;stroke-miterlimit:4;stroke-dasharray:none"
         id="path919" />
      <path
         d="M 5.037165,4.62542 V 3.9560034 q 0,-0.023123 0.016186,-0.040466 0.017342,-0.017342 0.041622,-0.017342 0.024279,0 0.041622,0.017342 0.017342,0.017342 0.017342,0.040466 V 4.62542 q 0,0.024279 0.017342,0.041622 0.017342,0.016186 0.040466,0.016186 h 0.2254512 q 0.023123,0 0.040466,-0.017342 0.018499,-0.017342 0.018499,-0.040466 V 3.9560034 q 0,-0.023123 0.016186,-0.040466 0.017342,-0.017342 0.041622,-0.017342 0.024279,0 0.041622,0.017342 0.017342,0.017342 0.017342,0.040466 V 4.62542 q 0,0.071682 -0.052027,0.1237092 -0.052027,0.050871 -0.1237091,0.050871 H 5.2117452 q -0.071682,0 -0.1237091,-0.050871 Q 5.037165,4.697102 5.037165,4.62542 Z"
         style="font-style:normal;font-variant:normal;font-weight:normal;font-stretch:normal;font-size:1.15616px;font-family:OCRA;-inkscape-font-specification:OCRA;stroke-width:0.306382;stroke-miterlimit:4;stroke-dasharray:none"
         id="path921" />
      <path
         d="M 5.8726712,4.6242639 V 4.3109445 q 0,-0.079775 0.048559,-0.1422077 L 6.0784677,3.9652527 q 0.052027,-0.067057 0.1387392,-0.067057 h 0.1722678 q 0.024279,0 0.041622,0.017342 0.017342,0.017342 0.017342,0.040466 0,0.024279 -0.017342,0.041622 -0.017342,0.017342 -0.041622,0.017342 H 6.2172069 q -0.028904,0 -0.046246,0.023123 L 6.0137227,4.2392626 q -0.024279,0.032373 -0.024279,0.071682 V 4.624264 q 0,0.024279 0.017342,0.041622 0.017342,0.017342 0.040466,0.017342 h 0.2254512 q 0.023123,0 0.040466,-0.017342 0.018499,-0.017342 0.018499,-0.041622 V 4.5051794 h -0.114461 q -0.024279,0 -0.041622,-0.016186 -0.016186,-0.017342 -0.016186,-0.041622 0,-0.024279 0.016186,-0.041622 0.017342,-0.017342 0.041622,-0.017342 h 0.231232 v 0.2358567 q 0,0.071682 -0.052027,0.1237091 -0.052027,0.052027 -0.1237091,0.052027 H 6.0472514 q -0.072838,0 -0.1237091,-0.050871 -0.050871,-0.052027 -0.050871,-0.1248653 z"
         style="font-style:normal;font-variant:normal;font-weight:normal;font-stretch:normal;font-size:1.15616px;font-family:OCRA;-inkscape-font-specification:OCRA;stroke-width:0.306382;stroke-miterlimit:4;stroke-dasharray:none"
         id="path923" />
    </g>
    <rect
       style="fill:none;stroke:#000000;stroke-width:0.0524205;stroke-miterlimit:4;stroke-dasharray:none;stroke-opacity:1;"
       id="rect833"
       width="8.7975798"
       height="4.9975796"
       x="0.0012102684"
       y="0.0012102684" />
    <g
       aria-label="RST"
       transform="matrix(0,-1.0664113,0.9377245,0,3.0471266,3.74692e-4)"
       id="txtRST"
       style="font-size:0.738889px;line-height:1.25;font-family:sans-serif;stroke-width:0.217043">
      <path
         d="m -3.2573041,4.4081636 v -0.598011 h 0.2838297 q 0.05086,0 0.087774,0.036914 0.036914,0.036914 0.036914,0.087774 v 0.042656 q 0,0.05086 -0.037735,0.087774 -0.036914,0.036914 -0.086954,0.036914 h -0.047578 l 0.1665243,0.2854703 q 0.00574,0.011484 0.00574,0.020508 0,0.017227 -0.012305,0.029532 -0.012305,0.012305 -0.029531,0.012305 -0.023789,0 -0.036094,-0.020508 L -3.1178502,4.1021854 h -0.056602 v 0.3059782 q 0,0.017227 -0.012305,0.029532 -0.012305,0.012305 -0.029531,0.012305 -0.017227,0 -0.029531,-0.012305 -0.011484,-0.012305 -0.011485,-0.029532 z m 0.082852,-0.3888302 h 0.2009777 q 0.016406,0 0.028711,-0.012305 0.013125,-0.013125 0.013125,-0.029531 v -0.042656 q 0,-0.017227 -0.013125,-0.029532 -0.012305,-0.012305 -0.028711,-0.012305 h -0.2009777 z"
         style="font-style:normal;font-variant:normal;font-weight:normal;font-stretch:normal;font-size:0.820317px;font-family:OCRA;-inkscape-font-specification:OCRA;stroke-width:0.217043"
         id="path1028" />
      <path
         d="m -2.6644969,4.339257 q 0,-0.017227 0.011484,-0.029531 0.012305,-0.012305 0.029531,-0.012305 0.017227,0 0.029531,0.012305 0.012305,0.012305 0.012305,0.029531 0,0.011484 0.0082,0.019688 0.0082,0.0082 0.019688,0.0082 h 0.2042589 q 0.010664,0 0.010664,-0.010664 L -2.6456296,3.9610909 q -0.018867,-0.02625 -0.018867,-0.057422 v -0.00246 q 0,-0.036914 0.02707,-0.063985 0.027891,-0.02707 0.065625,-0.02707 h 0.2042589 q 0.045117,0 0.07793,0.032813 0.033633,0.032813 0.033633,0.07793 0,0.017227 -0.012305,0.029531 -0.012305,0.012305 -0.029531,0.012305 -0.017227,0 -0.029531,-0.012305 -0.011485,-0.012305 -0.011485,-0.029531 0,-0.010664 -0.00902,-0.018867 -0.0082,-0.00902 -0.019688,-0.00902 h -0.2042589 q -0.00984,0 -0.00984,0.0082 v 0.00246 0.00328 l 0.3051579,0.3921115 q 0.020508,0.02461 0.020508,0.057422 -0.00164,0.038555 -0.028711,0.066446 -0.02625,0.02707 -0.064805,0.02707 h -0.2042589 q -0.045117,0 -0.07793,-0.032813 -0.032813,-0.032813 -0.032813,-0.07793 z"
         style="font-style:normal;font-variant:normal;font-weight:normal;font-stretch:normal;font-size:0.820317px;font-family:OCRA;-inkscape-font-specification:OCRA;stroke-width:0.217043"
         id="path1030" />
      <path
         d="M -2.0716897,3.9208954 V 3.8101526 h 0.4085178 v 0.1107428 q 0,0.017227 -0.012305,0.029531 -0.012305,0.012305 -0.029531,0.012305 -0.017227,0 -0.029531,-0.012305 -0.011484,-0.012305 -0.011484,-0.029531 v -0.027891 h -0.080391 v 0.515159 q 0,0.017227 -0.012305,0.029532 -0.012305,0.012305 -0.028711,0.012305 -0.017227,0 -0.029531,-0.012305 -0.012305,-0.012305 -0.012305,-0.029532 v -0.515159 h -0.079571 v 0.027891 q 0,0.017227 -0.012305,0.029531 -0.012305,0.012305 -0.029531,0.012305 -0.017227,0 -0.029531,-0.012305 -0.011484,-0.012305 -0.011484,-0.029531 z"
         style="font-style:normal;font-variant:normal;font-weight:normal;font-stretch:normal;font-size:0.820317px;font-family:OCRA;-inkscape-font-specification:OCRA;stroke-width:0.217043"
         id="path1032" />
    </g>
    <g
       aria-label="MISO"
       transform="matrix(0,-0.98754978,1.0126072,0,-1.0043692,0)"
       id="txtMISO"
       style="font-size:0.684248px;line-height:1.25;font-family:sans-serif;stroke-width:0.200993">
      <path
         d="M -3.8141592,5.1008331 V 4.5470454 h 0.095716 l 0.093437,0.1329394 0.092678,-0.1329394 h 0.096476 v 0.5537877 q 0,0.015953 -0.011395,0.027348 -0.011395,0.011395 -0.027348,0.011395 -0.015953,0 -0.027348,-0.011395 -0.010635,-0.011395 -0.010635,-0.027348 V 4.6526373 l -0.074446,0.1063515 v 0.019751 q 0,0.015953 -0.011395,0.027348 -0.011395,0.011395 -0.026588,0.011395 -0.015953,0 -0.027347,-0.011395 -0.011395,-0.011395 -0.011395,-0.027348 v -0.019751 l -0.073686,-0.1048322 v 0.4466765 q 0,0.015953 -0.011395,0.027348 -0.011395,0.011395 -0.027347,0.011395 -0.015953,0 -0.027347,-0.011395 -0.010635,-0.011395 -0.010635,-0.027348 z"
         style="font-style:normal;font-variant:normal;font-weight:normal;font-stretch:normal;font-size:0.759654px;font-family:OCRA;-inkscape-font-specification:OCRA;stroke-width:0.200993"
         id="path1035" />
      <path
         d="m -3.2651905,5.1008331 q 0,-0.015193 0.010635,-0.026588 0.011395,-0.011395 0.027348,-0.011395 h 0.1124288 v -0.43908 h -0.1124288 q -0.015953,0 -0.027348,-0.011395 -0.010635,-0.011395 -0.010635,-0.027348 0,-0.015193 0.010635,-0.026588 0.011395,-0.011395 0.027348,-0.011395 h 0.3015826 q 0.015953,0 0.027348,0.011395 0.011395,0.011395 0.011395,0.026588 0,0.015953 -0.011395,0.027348 -0.011395,0.011395 -0.027348,0.011395 H -3.038054 v 0.43908 h 0.1124288 q 0.015953,0 0.027348,0.011395 0.011395,0.011395 0.011395,0.026588 0,0.015953 -0.011395,0.027348 -0.011395,0.011395 -0.027348,0.011395 h -0.3015826 q -0.015953,0 -0.027348,-0.011395 -0.010635,-0.011395 -0.010635,-0.027348 z"
         style="font-style:normal;font-variant:normal;font-weight:normal;font-stretch:normal;font-size:0.759654px;font-family:OCRA;-inkscape-font-specification:OCRA;stroke-width:0.200993"
         id="path1037" />
      <path
         d="m -2.7162218,5.0370222 q 0,-0.015953 0.010635,-0.027348 0.011395,-0.011395 0.027347,-0.011395 0.015953,0 0.027348,0.011395 0.011395,0.011395 0.011395,0.027348 0,0.010635 0.0076,0.018232 0.0076,0.0076 0.018232,0.0076 h 0.1891539 q 0.00988,0 0.00988,-0.00988 L -2.6987498,4.6868217 q -0.017472,-0.024309 -0.017472,-0.053176 v -0.00228 q 0,-0.034185 0.025069,-0.059253 0.025828,-0.025069 0.060772,-0.025069 h 0.1891538 q 0.041781,0 0.072167,0.030386 0.031146,0.030386 0.031146,0.072167 0,0.015953 -0.011395,0.027347 -0.011395,0.011395 -0.027348,0.011395 -0.015953,0 -0.027348,-0.011395 -0.010635,-0.011395 -0.010635,-0.027347 0,-0.00988 -0.00836,-0.017472 -0.0076,-0.00836 -0.018232,-0.00836 h -0.1891538 q -0.00912,0 -0.00912,0.0076 v 0.00228 0.00304 l 0.2825913,0.3631146 q 0.018991,0.02279 0.018991,0.053176 -0.00152,0.035704 -0.026588,0.061532 -0.024309,0.025069 -0.060013,0.025069 h -0.1891539 q -0.041781,0 -0.072167,-0.030386 -0.030386,-0.030386 -0.030386,-0.072167 z"
         style="font-style:normal;font-variant:normal;font-weight:normal;font-stretch:normal;font-size:0.759654px;font-family:OCRA;-inkscape-font-specification:OCRA;stroke-width:0.200993"
         id="path1039" />
      <path
         d="m -2.1672532,4.8433104 q 0,-0.040262 0.018232,-0.078244 l 0.081283,-0.1633256 q 0.012154,-0.023549 0.035704,-0.038742 0.024309,-0.015953 0.053176,-0.015953 0.029627,0 0.053176,0.015953 0.024309,0.015193 0.036463,0.038742 l 0.081283,0.1633256 q 0.018991,0.039502 0.018991,0.078244 0,0.038742 -0.018991,0.078244 L -1.8892192,5.08488 q -0.012155,0.023549 -0.036463,0.039502 -0.023549,0.015193 -0.053176,0.015193 -0.028867,0 -0.053176,-0.015193 -0.023549,-0.015953 -0.035704,-0.039502 l -0.081283,-0.1633256 q -0.018232,-0.034944 -0.018232,-0.078244 z m 0.086601,-0.04406 q -0.00988,0.02127 -0.00988,0.04406 0,0.02279 0.00988,0.04406 l 0.082043,0.1625659 q 0.00608,0.012914 0.019751,0.012914 0.015193,0 0.02127,-0.012154 l 0.081283,-0.1633256 q 0.010635,-0.025828 0.010635,-0.04406 0,-0.02279 -0.010635,-0.04406 l -0.082043,-0.1618063 q -0.00608,-0.013674 -0.020511,-0.013674 -0.012914,0 -0.019751,0.013674 z"
         style="font-style:normal;font-variant:normal;font-weight:normal;font-stretch:normal;font-size:0.759654px;font-family:OCRA;-inkscape-font-specification:OCRA;stroke-width:0.200993"
         id="path1041" />
    </g>
    <g
       aria-label="MOSI"
       transform="matrix(0,-0.98754977,1.0126072,0,-0.97690327,0)"
       id="txtMOSI"
       style="font-size:0.684247px;line-height:1.25;font-family:sans-serif;stroke-width:0.200993">
      <path
         d="m -3.8141593,6.0612576 v -0.553787 h 0.095716 l 0.093437,0.1329393 0.092678,-0.1329393 h 0.096476 v 0.553787 q 0,0.015953 -0.011395,0.027347 -0.011395,0.011395 -0.027347,0.011395 -0.015953,0 -0.027347,-0.011395 -0.010635,-0.011395 -0.010635,-0.027347 V 5.6130623 l -0.074446,0.1063515 v 0.019751 q 0,0.015953 -0.011395,0.027348 -0.011395,0.011395 -0.026588,0.011395 -0.015953,0 -0.027347,-0.011395 -0.011395,-0.011395 -0.011395,-0.027348 v -0.019751 l -0.073686,-0.1048321 v 0.4466759 q 0,0.015953 -0.011395,0.027347 -0.011395,0.011395 -0.027348,0.011395 -0.015953,0 -0.027347,-0.011395 -0.010635,-0.011395 -0.010635,-0.027347 z"
         style="font-style:normal;font-variant:normal;font-weight:normal;font-stretch:normal;font-size:0.759653px;font-family:OCRA;-inkscape-font-specification:OCRA;stroke-width:0.200993"
         id="path1044" />
      <path
         d="m -3.2651914,5.8037352 q 0,-0.040262 0.018232,-0.078244 l 0.081283,-0.1633254 q 0.012154,-0.023549 0.035704,-0.038742 0.024309,-0.015953 0.053176,-0.015953 0.029627,0 0.053176,0.015953 0.024309,0.015193 0.036463,0.038742 l 0.081283,0.1633254 q 0.018991,0.039502 0.018991,0.078244 0,0.038742 -0.018991,0.078244 l -0.081283,0.1633254 q -0.012154,0.023549 -0.036463,0.039502 -0.023549,0.015193 -0.053176,0.015193 -0.028867,0 -0.053176,-0.015193 -0.023549,-0.015953 -0.035704,-0.039502 l -0.081283,-0.1633254 q -0.018232,-0.034944 -0.018232,-0.078244 z m 0.0866,-0.04406 q -0.00988,0.02127 -0.00988,0.04406 0,0.02279 0.00988,0.04406 l 0.082043,0.1625658 q 0.00608,0.012914 0.019751,0.012914 0.015193,0 0.02127,-0.012155 l 0.081283,-0.1633254 q 0.010635,-0.025828 0.010635,-0.04406 0,-0.02279 -0.010635,-0.04406 l -0.082043,-0.1618061 q -0.00608,-0.013674 -0.020511,-0.013674 -0.012914,0 -0.019751,0.013674 z"
         style="font-style:normal;font-variant:normal;font-weight:normal;font-stretch:normal;font-size:0.759653px;font-family:OCRA;-inkscape-font-specification:OCRA;stroke-width:0.200993"
         id="path1046" />
      <path
         d="m -2.7162234,5.9974468 q 0,-0.015953 0.010635,-0.027348 0.011395,-0.011395 0.027348,-0.011395 0.015953,0 0.027347,0.011395 0.011395,0.011395 0.011395,0.027348 0,0.010635 0.0076,0.018232 0.0076,0.0076 0.018232,0.0076 h 0.1891535 q 0.00988,0 0.00988,-0.00988 L -2.6987514,5.6472467 q -0.017472,-0.024309 -0.017472,-0.053176 v -0.00228 q 0,-0.034184 0.025069,-0.059253 0.025828,-0.025068 0.060772,-0.025068 h 0.1891536 q 0.041781,0 0.072167,0.030386 0.031146,0.030386 0.031146,0.072167 0,0.015953 -0.011395,0.027347 -0.011395,0.011395 -0.027347,0.011395 -0.015953,0 -0.027347,-0.011395 -0.010635,-0.011395 -0.010635,-0.027347 0,-0.00988 -0.00836,-0.017472 -0.0076,-0.00836 -0.018232,-0.00836 h -0.1891536 q -0.00912,0 -0.00912,0.0076 v 0.00228 0.00304 l 0.2825909,0.3631142 q 0.018991,0.02279 0.018991,0.053176 -0.00152,0.035704 -0.026588,0.061532 -0.024309,0.025069 -0.060013,0.025069 H -2.613678 q -0.041781,0 -0.072167,-0.030386 -0.030386,-0.030386 -0.030386,-0.072167 z"
         style="font-style:normal;font-variant:normal;font-weight:normal;font-stretch:normal;font-size:0.759653px;font-family:OCRA;-inkscape-font-specification:OCRA;stroke-width:0.200993"
         id="path1048" />
      <path
         d="m -2.1672554,6.0612576 q 0,-0.015193 0.010635,-0.026588 0.011395,-0.011395 0.027348,-0.011395 h 0.1124287 V 5.5841955 h -0.1124287 q -0.015953,0 -0.027348,-0.011395 -0.010635,-0.011395 -0.010635,-0.027348 0,-0.015193 0.010635,-0.026588 0.011395,-0.011395 0.027348,-0.011395 h 0.3015822 q 0.015953,0 0.027347,0.011395 0.011395,0.011395 0.011395,0.026588 0,0.015953 -0.011395,0.027348 -0.011395,0.011395 -0.027347,0.011395 h -0.112429 V 6.023275 h 0.1124286 q 0.015953,0 0.027347,0.011395 0.011395,0.011395 0.011395,0.026588 0,0.015953 -0.011395,0.027347 Q -1.8117386,6.1 -1.8276906,6.1 h -0.3015822 q -0.015953,0 -0.027348,-0.011395 -0.010635,-0.011395 -0.010635,-0.027347 z"
         style="font-style:normal;font-variant:normal;font-weight:normal;font-stretch:normal;font-size:0.759653px;font-family:OCRA;-inkscape-font-specification:OCRA;stroke-width:0.200993"
         id="path1050" />
    </g>
    <g
       aria-label="SCK"
       transform="matrix(0,-1.0664113,0.9377245,0,-1.0204771,0)"
       id="txtSCK"
       style="font-size:0.738889px;line-height:1.25;font-family:sans-serif;stroke-width:0.217043">
      <path
         d="m -3.2573041,7.589257 q 0,-0.017227 0.011484,-0.029531 0.012305,-0.012305 0.029531,-0.012305 0.017227,0 0.029531,0.012305 0.012305,0.012305 0.012305,0.029531 0,0.011484 0.0082,0.019688 0.0082,0.0082 0.019688,0.0082 h 0.2042589 q 0.010664,0 0.010664,-0.010664 L -3.2384368,7.2110909 q -0.018867,-0.02625 -0.018867,-0.057422 v -0.00246 q 0,-0.036914 0.02707,-0.063985 0.027891,-0.02707 0.065625,-0.02707 h 0.204259 q 0.045117,0 0.07793,0.032813 0.033633,0.032813 0.033633,0.07793 0,0.017227 -0.012305,0.029531 -0.012305,0.012305 -0.029531,0.012305 -0.017227,0 -0.029531,-0.012305 -0.011484,-0.012305 -0.011484,-0.029531 0,-0.010664 -0.00902,-0.018867 -0.0082,-0.00902 -0.019688,-0.00902 h -0.204259 q -0.00984,0 -0.00984,0.0082 v 0.00246 0.00328 l 0.3051579,0.3921115 q 0.020508,0.02461 0.020508,0.057422 -0.00164,0.038555 -0.028711,0.066446 -0.02625,0.02707 -0.064805,0.02707 h -0.2042589 q -0.045117,0 -0.07793,-0.032813 -0.032813,-0.032813 -0.032813,-0.07793 z"
         style="font-style:normal;font-variant:normal;font-weight:normal;font-stretch:normal;font-size:0.820317px;font-family:OCRA;-inkscape-font-specification:OCRA;stroke-width:0.217043"
         id="path1053" />
      <path
         d="m -2.6644969,7.3800762 q 0,-0.043477 0.019688,-0.084493 l 0.082852,-0.1673446 q 0.013125,-0.029531 0.043477,-0.048399 0.031172,-0.019688 0.068086,-0.019688 h 0.152579 q 0.017227,0 0.029531,0.012305 0.012305,0.012305 0.012305,0.028711 0,0.017227 -0.012305,0.029531 -0.012305,0.012305 -0.029531,0.012305 h -0.152579 q -0.02543,0 -0.036094,0.022969 l -0.084493,0.1665243 q -0.010664,0.022969 -0.010664,0.047578 0,0.024609 0.010664,0.047578 l 0.084493,0.1665243 q 0.010664,0.022969 0.036094,0.022969 h 0.152579 q 0.017227,0 0.029531,0.012305 0.012305,0.012305 0.012305,0.028711 0,0.017227 -0.012305,0.029532 -0.012305,0.012305 -0.029531,0.012305 h -0.152579 q -0.036094,0 -0.066446,-0.019688 -0.029531,-0.019688 -0.044297,-0.049219 -0.060703,-0.1156647 -0.083672,-0.1665244 -0.019688,-0.041836 -0.019688,-0.084493 z"
         style="font-style:normal;font-variant:normal;font-weight:normal;font-stretch:normal;font-size:0.820317px;font-family:OCRA;-inkscape-font-specification:OCRA;stroke-width:0.217043"
         id="path1055" />
      <path
         d="M -2.0716897,7.6581636 V 7.1011684 q 0,-0.016406 0.011484,-0.028711 0.012305,-0.012305 0.029531,-0.012305 0.017227,0 0.029531,0.012305 0.012305,0.012305 0.012305,0.028711 v 0.1886729 l 0.2567592,-0.2198449 q 0.012305,-0.00984 0.02707,-0.00984 0.017227,0 0.029531,0.012305 0.012305,0.012305 0.012305,0.028711 0,0.019688 -0.014766,0.031992 l -0.2887516,0.2469154 0.2887516,0.2469154 q 0.014766,0.012305 0.014766,0.031172 0,0.017227 -0.012305,0.029532 -0.012305,0.012305 -0.029531,0.012305 -0.014766,0 -0.02707,-0.00984 L -1.9888377,7.4703111 v 0.1878525 q 0,0.017227 -0.012305,0.029532 -0.012305,0.012305 -0.029531,0.012305 -0.017227,0 -0.029531,-0.012305 -0.011484,-0.012305 -0.011484,-0.029532 z"
         style="font-style:normal;font-variant:normal;font-weight:normal;font-stretch:normal;font-size:0.820317px;font-family:OCRA;-inkscape-font-specification:OCRA;stroke-width:0.217043"
         id="path1057" />
    </g>
  </g>
  <g
     id="copper1">
    <g
       id="copper0"
       transform="translate(1.65)">
      <rect
         y="2.4000001"
         x="-1.65"
         height="1.8000001"
         width="1.2"
         id="connector8pin"
         style="fill:#ffbf00;stroke-width:0.264999" />
      <rect
         style="fill:#ffbf00;stroke-width:0.264999"
         id="connector7pin"
         width="1.2"
         height="1.8"
         x="5.9499998"
         y="2.4000001" />
      <rect
         style="fill:#ffbf00;stroke-width:0.265;stroke-miterlimit:4;stroke-dasharray:none"
         id="connector6pin"
         width="0.5"
         height="1.65"
         x="5"
         y="0" />
      <rect
         style="fill:#ffbf00;stroke-width:0.264999"
         id="connector5pin"
         width="0.5"
         height="1.65"
         x="4"
         y="0" />
      <rect
         style="fill:#ffbf00;stroke-width:0.264999"
         id="connector4pin"
         width="0.5"
         height="1.65"
         x="3"
         y="0" />
      <rect
         style="fill:#ffbf00;stroke-width:0.264999"
         id="connector3pin"
         width="0.5"
         height="1.65"
         x="2"
         y="0" />
      <rect
         style="fill:#ffbf00;stroke-width:0.264999"
         id="connector2pin"
         width="0.5"
         height="1.65"
         x="1"
         y="0" />
      <rect
         y="0"
         x="0"
         height="1.65"
         width="0.5"
         id="connector1pin"
         style="fill:#ffbf00;stroke-width:0.264999" />
    </g>
  </g>
</svg>
