<?xml version="1.0" encoding="UTF-8" standalone="no"?>
<svg
   xmlns:dc="http://purl.org/dc/elements/1.1/"
   xmlns:cc="http://creativecommons.org/ns#"
   xmlns:rdf="http://www.w3.org/1999/02/22-rdf-syntax-ns#"
   xmlns:svg="http://www.w3.org/2000/svg"
   xmlns="http://www.w3.org/2000/svg"
   xmlns:sodipodi="http://sodipodi.sourceforge.net/DTD/sodipodi-0.dtd"
   xmlns:inkscape="http://www.inkscape.org/namespaces/inkscape"
   sodipodi:docname="M-501331-6pin_Schematic.svg"
   inkscape:version="1.0 (4035a4fb49, 2020-05-01)"
   id="svg3211"
   version="1.1"
   viewBox="0 0 32.540001 45.080002"
   height="45.080002mm"
   width="32.540001mm">
  <defs
     id="defs3205" />
  <sodipodi:namedview
     inkscape:window-maximized="0"
     inkscape:window-y="0"
     inkscape:window-x="204"
     inkscape:window-height="1041"
     inkscape:window-width="1555"
     showgrid="false"
     inkscape:document-rotation="0"
     inkscape:current-layer="layer1"
     inkscape:document-units="mm"
     inkscape:cy="102.80707"
     inkscape:cx="49.23556"
     inkscape:zoom="3.0225564"
     inkscape:pageshadow="2"
     inkscape:pageopacity="0.0"
     borderopacity="1.0"
     bordercolor="#666666"
     pagecolor="#ffffff"
     id="base" />
  <metadata
     id="metadata3208">
    <rdf:RDF>
      <cc:Work
         rdf:about="">
        <dc:format>image/svg+xml</dc:format>
        <dc:type
           rdf:resource="http://purl.org/dc/dcmitype/StillImage" />
        <dc:title></dc:title>
      </cc:Work>
    </rdf:RDF>
  </metadata>
  <g
     id="layer1"
     inkscape:groupmode="layer"
     inkscape:label="Ebene 1"
     transform="translate(-27.459999,-30)">
    <rect
       y="32.577435"
       x="30.037437"
       height="39.925125"
       width="29.925127"
       id="rect3213"
       style="fill:none;stroke:#000000;stroke-width:0.074873;stroke-miterlimit:4;stroke-dasharray:none" />
    <rect
       y="62.254002"
       x="27.459999"
       height="0.1"
       width="2.54"
       id="rect3776"
       style="fill:#b3b3b3;stroke:none;stroke-width:0.0750001;stroke-miterlimit:4;stroke-dasharray:none" />
    <rect
       style="fill:#b3b3b3;stroke:none;stroke-width:0.0750001;stroke-miterlimit:4;stroke-dasharray:none"
       id="rect3776-7"
       width="2.5400002"
       height="0.1"
       x="27.459999"
       y="40.254002" />
    <rect
       style="fill:#b3b3b3;stroke:none;stroke-width:0.0750001;stroke-miterlimit:4;stroke-dasharray:none"
       id="rect3793-0"
       width="0.1"
       height="2.5400002"
       x="42"
       y="30" />
    <rect
       style="fill:#b3b3b3;stroke:none;stroke-width:0.0750001;stroke-miterlimit:4;stroke-dasharray:none"
       id="rect3793-0-3-1"
       width="0.1"
       height="2.5400004"
       x="45"
       y="72.540001" />
    <g
       style="font-size:1.76389px;line-height:1.25;font-family:OCRA;-inkscape-font-specification:OCRA;fill:#b3b3b3;stroke-width:0.264583"
       id="text3863-9"
       aria-label="GND">
      <path
         id="path3970"
         style="font-style:normal;font-variant:normal;font-weight:normal;font-stretch:normal;font-family:'Droid Sans';-inkscape-font-specification:'Droid Sans';fill:#b3b3b3;stroke-width:0.264583"
         d="m 43.942899,71.312368 h 0.416857 v 0.617534 q -0.04737,0.0155 -0.0956,0.02756 -0.04823,0.01206 -0.09905,0.01981 -0.05081,0.0086 -0.106798,0.01292 -0.05598,0.0043 -0.120579,0.0043 -0.13522,0 -0.239434,-0.04479 -0.104214,-0.04565 -0.1757,-0.129191 -0.07149,-0.08441 -0.10852,-0.204122 -0.03703,-0.120578 -0.03703,-0.27044 0,-0.148139 0.04048,-0.267856 0.04134,-0.119718 0.119717,-0.203261 0.07838,-0.08441 0.192925,-0.129191 0.115411,-0.04565 0.262689,-0.04565 0.0956,0 0.183451,0.01895 0.08785,0.01895 0.163643,0.05512 l -0.06201,0.139526 q -0.03101,-0.01464 -0.06718,-0.02756 -0.03531,-0.01292 -0.07321,-0.02239 -0.0379,-0.01033 -0.07838,-0.01636 -0.03962,-0.006 -0.07924,-0.006 -0.105076,0 -0.186035,0.03531 -0.08096,0.03445 -0.136082,0.09991 -0.05426,0.06546 -0.08268,0.159336 -0.02842,0.09388 -0.02842,0.211873 0,0.111966 0.02325,0.204984 0.02412,0.09302 0.07579,0.160197 0.05168,0.06718 0.133498,0.104214 0.08182,0.03704 0.197232,0.03704 0.0379,0 0.0689,-0.0017 0.03187,-0.0026 0.05857,-0.006 0.0267,-0.0034 0.04995,-0.0078 0.02412,-0.0052 0.04651,-0.0095 v -0.375516 h -0.257521 z" />
      <path
         id="path3972"
         style="font-style:normal;font-variant:normal;font-weight:normal;font-stretch:normal;font-family:'Droid Sans';-inkscape-font-specification:'Droid Sans';fill:#b3b3b3;stroke-width:0.264583"
         d="M 45.599991,71.977272 H 45.414817 L 44.795561,70.93513 h -0.0069 q 0.0052,0.06632 0.0086,0.131775 0.0034,0.05598 0.0052,0.117133 0.0026,0.06115 0.0026,0.110243 v 0.682991 h -0.148139 v -1.259183 h 0.183451 l 0.616673,1.036974 h 0.006 q -0.0026,-0.06546 -0.006,-0.129191 -8.62e-4,-0.02756 -0.0026,-0.05598 -8.62e-4,-0.02928 -0.0026,-0.0577 -8.61e-4,-0.02928 -0.0017,-0.05598 0,-0.0267 0,-0.04909 v -0.689019 h 0.149862 z" />
      <path
         id="path3974"
         style="font-style:normal;font-variant:normal;font-weight:normal;font-stretch:normal;font-family:'Droid Sans';-inkscape-font-specification:'Droid Sans';fill:#b3b3b3;stroke-width:0.264583"
         d="m 46.86951,71.335623 q 0,0.159335 -0.04134,0.279914 -0.04134,0.119717 -0.119718,0.200677 -0.07838,0.0801 -0.192925,0.120578 -0.113688,0.04048 -0.258382,0.04048 h -0.315227 v -1.259183 h 0.350539 q 0.131775,0 0.238573,0.03962 0.106798,0.03962 0.181729,0.117995 0.07493,0.07751 0.115411,0.192926 0.04134,0.11541 0.04134,0.266995 z m -0.169671,0.0052 q 0,-0.125746 -0.02842,-0.217041 -0.02842,-0.09216 -0.08268,-0.151584 -0.05426,-0.05943 -0.133497,-0.08785 -0.07924,-0.02928 -0.180007,-0.02928 h -0.173116 v 0.984437 h 0.139527 q 0.227376,0 0.342787,-0.125746 0.115411,-0.125746 0.115411,-0.372932 z" />
    </g>
    <rect
       y="43.753143"
       x="27.42795"
       height="0.1"
       width="2.5400004"
       id="rect3776-7-3"
       style="fill:#b3b3b3;stroke:none;stroke-width:0.0750001;stroke-miterlimit:4;stroke-dasharray:none" />
    <rect
       y="48.766838"
       x="27.366053"
       height="0.1"
       width="2.5400004"
       id="rect3776-7-33"
       style="fill:#b3b3b3;stroke:none;stroke-width:0.0750001;stroke-miterlimit:4;stroke-dasharray:none" />
    <text
       id="text903"
       y="34.801613"
       x="40.587421"
       style="font-size:0.79375px;line-height:0;font-family:sans-serif;stroke-width:0.264583"
       xml:space="preserve"><tspan
         style="font-style:normal;font-variant:normal;font-weight:normal;font-stretch:normal;font-size:1.5px;line-height:1.25;font-family:sans-serif;-inkscape-font-specification:sans-serif;stroke-width:0.264583"
         y="34.801613"
         x="40.587421"
         id="tspan901"
         sodipodi:role="line">VCC</tspan></text>
    <text
       xml:space="preserve"
       style="font-size:0.79375px;line-height:0;font-family:sans-serif;stroke-width:0.264583"
       x="31.886463"
       y="40.875301"
       id="text903-6"><tspan
         sodipodi:role="line"
         id="tspan901-9"
         x="31.886463"
         y="40.875301"
         style="font-style:normal;font-variant:normal;font-weight:normal;font-stretch:normal;font-size:1.5px;line-height:1.25;font-family:sans-serif;-inkscape-font-specification:sans-serif;stroke-width:0.264583">RESET</tspan></text>
    <text
       id="text903-6-2"
       y="44.376755"
       x="31.807116"
       style="font-size:0.79375px;line-height:0;font-family:sans-serif;stroke-width:0.264583"
       xml:space="preserve"><tspan
         style="font-style:normal;font-variant:normal;font-weight:normal;font-stretch:normal;font-size:1.5px;line-height:1.25;font-family:sans-serif;-inkscape-font-specification:sans-serif;stroke-width:0.264583"
         y="44.376755"
         x="31.807116"
         id="tspan901-9-4"
         sodipodi:role="line">MISO</tspan></text>
    <text
       xml:space="preserve"
       style="font-size:0.79375px;line-height:0;font-family:sans-serif;stroke-width:0.264583"
       x="31.692526"
       y="49.168499"
       id="text903-6-2-5"><tspan
         sodipodi:role="line"
         id="tspan901-9-4-8"
         x="31.692526"
         y="49.168499"
         style="font-style:normal;font-variant:normal;font-weight:normal;font-stretch:normal;font-size:1.5px;line-height:1.25;font-family:sans-serif;-inkscape-font-specification:sans-serif;stroke-width:0.264583">MOSI</tspan></text>
    <text
       id="text903-6-2-5-5"
       y="62.671837"
       x="31.477406"
       style="font-size:0.79375px;line-height:0;font-family:sans-serif;stroke-width:0.264583"
       xml:space="preserve"><tspan
         style="font-style:normal;font-variant:normal;font-weight:normal;font-stretch:normal;font-size:1.5px;line-height:1.25;font-family:sans-serif;-inkscape-font-specification:sans-serif;stroke-width:0.264583"
         y="62.671837"
         x="31.477406"
         id="tspan901-9-4-8-1"
         sodipodi:role="line">SCK</tspan></text>
  </g>
</svg>
