<?xml version="1.0" encoding="UTF-8" standalone="no"?>
<svg
   xmlns:dc="http://purl.org/dc/elements/1.1/"
   xmlns:cc="http://creativecommons.org/ns#"
   xmlns:rdf="http://www.w3.org/1999/02/22-rdf-syntax-ns#"
   xmlns:svg="http://www.w3.org/2000/svg"
   xmlns="http://www.w3.org/2000/svg"
   xmlns:sodipodi="http://sodipodi.sourceforge.net/DTD/sodipodi-0.dtd"
   xmlns:inkscape="http://www.inkscape.org/namespaces/inkscape"
   sodipodi:docname="HLK-5M12_2.svg"
   inkscape:version="1.0 (4035a4fb49, 2020-05-01)"
   id="svg8"
   version="1.1"
   viewBox="0 0 38.099998 23.29987"
   height="23.29987mm"
   width="38.099998mm">
  <defs
     id="defs2" />
  <sodipodi:namedview
     inkscape:lockguides="true"
     inkscape:window-maximized="1"
     inkscape:window-y="-8"
     inkscape:window-x="-8"
     inkscape:window-height="1009"
     inkscape:window-width="1920"
     inkscape:snap-object-midpoints="true"
     showgrid="true"
     inkscape:document-rotation="0"
     inkscape:current-layer="layer1"
     inkscape:document-units="mm"
     inkscape:cy="218.1745"
     inkscape:cx="254.86487"
     inkscape:zoom="0.84628334"
     inkscape:pageshadow="2"
     inkscape:pageopacity="0.0"
     borderopacity="1.0"
     bordercolor="#666666"
     pagecolor="#ffffff"
     id="base">
    <inkscape:grid
       originy="0.00028167484"
       originx="0.00015536201"
       id="grid1823"
       type="xygrid" />
  </sodipodi:namedview>
  <metadata
     id="metadata5">
    <rdf:RDF>
      <cc:Work
         rdf:about="">
        <dc:format>image/svg+xml</dc:format>
        <dc:type
           rdf:resource="http://purl.org/dc/dcmitype/StillImage" />
        <dc:title></dc:title>
      </cc:Work>
    </rdf:RDF>
  </metadata>
  <g
     transform="translate(1.5536202e-4,2.8167484e-4)"
     id="layer1"
     inkscape:groupmode="layer"
     inkscape:label="Ebene 1">
    <path
       d="M -1.5536202e-4,-2.8167484e-4 V 23.299588 H 38.099844 V -2.8167484e-4 Z M 35.983178,1.9499869 a 0.75,0.75 0 0 1 0.01705,0 0.75,0.75 0 0 1 0.749826,0.7498249 0.75,0.75 0 0 1 -0.749826,0.750342 0.75,0.75 0 0 1 -0.75034,-0.750342 0.75,0.75 0 0 1 0.733288,-0.7498249 z M 2.6834017,7.9501373 a 0.75,0.75 0 0 1 0.016536,0 A 0.75,0.75 0 0 1 3.4502801,8.6999622 0.75,0.75 0 0 1 2.6999382,9.4497874 0.75,0.75 0 0 1 1.9501132,8.6999622 0.75,0.75 0 0 1 2.6834017,7.9501373 Z M 2.682885,13.949771 a 0.75,0.75 0 0 1 0.017053,0 0.75,0.75 0 0 1 0.7503419,0.750342 0.75,0.75 0 0 1 -0.7503419,0.749825 0.75,0.75 0 0 1 -0.749825,-0.749825 0.75,0.75 0 0 1 0.732772,-0.750342 z m 33.317345,5.899898 a 0.75,0.75 0 0 1 0.749826,0.750342 0.75,0.75 0 0 1 -0.749826,0.749825 0.75,0.75 0 0 1 -0.75034,-0.749825 0.75,0.75 0 0 1 0.75034,-0.750342 z"
       style="fill:#000000;fill-opacity:1;fill-rule:evenodd;stroke-width:0.264583"
       id="rect833" />
    <path
       d="M 2.6865017,7.7000243 A 1,1 0 0 0 1.7000001,8.6999613 1,1 0 0 0 2.7004558,9.700417 1,1 0 0 0 3.700393,8.6999613 1,1 0 0 0 2.7004558,7.7000243 a 1,1 0 0 0 -0.013954,0 z m -0.0031,0.250113 a 0.75,0.75 0 0 1 0.017055,0 0.75,0.75 0 0 1 0.7498239,0.749824 A 0.75,0.75 0 0 1 2.7004567,9.450303 0.75,0.75 0 0 1 1.9501143,8.6999613 0.75,0.75 0 0 1 2.6834017,7.9501373 Z"
       style="fill:#e6ab00;fill-opacity:1;stroke-width:0.264583"
       id="path859" />
    <path
       id="path859-1"
       style="fill:#e6ab00;fill-opacity:1;stroke-width:0.264583"
       d="m 2.6865021,13.700024 a 1,1 0 0 0 -0.986502,0.999937 1,1 0 0 0 1.000456,1.000456 1,1 0 0 0 0.999937,-1.000456 1,1 0 0 0 -0.999937,-0.999937 1,1 0 0 0 -0.01394,0 z m -0.0031,0.250113 a 0.75000001,0.75000001 0 0 1 0.01707,0 0.75000001,0.75000001 0 0 1 0.749824,0.749824 0.75000001,0.75000001 0 0 1 -0.749824,0.750342 0.75000001,0.75000001 0 0 1 -0.750342,-0.750342 0.75000001,0.75000001 0 0 1 0.733287,-0.749824 z" />
    <path
       id="path859-9"
       style="fill:#e6ab00;fill-opacity:1;stroke-width:0.264583"
       d="M 35.986502,1.7000243 A 1,1 0 0 0 35,2.6999623 a 1,1 0 0 0 1.000456,1.000455 1,1 0 0 0 0.999937,-1.000455 1,1 0 0 0 -0.999937,-0.999938 1,1 0 0 0 -0.01394,0 z m -0.0031,0.250114 a 0.75000001,0.75000001 0 0 1 0.01707,0 0.75000001,0.75000001 0 0 1 0.749824,0.749824 0.75000001,0.75000001 0 0 1 -0.749823,0.750342 0.75000001,0.75000001 0 0 1 -0.750343,-0.750342 0.75000001,0.75000001 0 0 1 0.733287,-0.749824 z" />
    <path
       id="path859-7"
       style="fill:#e6ab00;fill-opacity:1;stroke-width:0.264583"
       d="M 35.986502,19.600024 A 1,1 0 0 0 35,20.599962 a 1,1 0 0 0 1.000456,1.000455 1,1 0 0 0 0.999937,-1.000455 1,1 0 0 0 -0.999937,-0.999938 1,1 0 0 0 -0.01394,0 z m -0.0031,0.250114 a 0.75000001,0.75000001 0 0 1 0.01707,0 0.75000001,0.75000001 0 0 1 0.749824,0.749824 0.75000001,0.75000001 0 0 1 -0.749823,0.750342 0.75000001,0.75000001 0 0 1 -0.750343,-0.750342 0.75000001,0.75000001 0 0 1 0.733287,-0.749824 z" />
    <g
       style="font-style:normal;font-weight:normal;font-size:4.23333px;line-height:1.25;font-family:sans-serif;fill:#000000;fill-opacity:1;stroke:none;stroke-width:0.264583"
       id="text931"
       aria-label="HF-LINK">
      <path
         id="path1769"
         style="font-style:normal;font-variant:normal;font-weight:normal;font-stretch:normal;font-size:4.23333px;font-family:OCRA;-inkscape-font-specification:OCRA;fill:#ffffff;fill-opacity:1;stroke-width:0.264583"
         d="M 11.14504,9.7322918 V 6.8578609 q 0,-0.084667 0.05927,-0.1481665 0.0635,-0.0635 0.152399,-0.0635 0.0889,0 0.1524,0.0635 0.0635,0.0635 0.0635,0.1481665 v 1.2234323 h 1.253066 V 6.8578609 q 0,-0.084667 0.05927,-0.1481665 0.0635,-0.0635 0.1524,-0.0635 0.0889,0 0.1524,0.0635 0.0635,0.0635 0.0635,0.1481665 v 2.8744309 q 0,0.0889 -0.0635,0.1523999 -0.0635,0.0635 -0.1524,0.0635 -0.0889,0 -0.1524,-0.0635 -0.05927,-0.0635 -0.05927,-0.1523999 V 8.5088595 h -1.253066 v 1.2234323 q 0,0.0889 -0.0635,0.1523999 -0.0635,0.0635 -0.1524,0.0635 -0.0889,0 -0.152399,-0.0635 -0.05927,-0.0635 -0.05927,-0.1523999 z" />
      <path
         id="path1771"
         style="font-style:normal;font-variant:normal;font-weight:normal;font-stretch:normal;font-size:4.23333px;font-family:OCRA;-inkscape-font-specification:OCRA;fill:#ffffff;fill-opacity:1;stroke-width:0.264583"
         d="M 14.204282,9.7322918 V 6.6461944 h 1.892299 q 0.0889,0 0.152399,0.0635 0.0635,0.0635 0.0635,0.1481665 0,0.0889 -0.0635,0.1523999 -0.0635,0.0635 -0.152399,0.0635 h -1.464733 v 0.6519328 h 1.045633 q 0.0889,0 0.148166,0.0635 0.0635,0.059267 0.0635,0.1481665 0,0.0889 -0.0635,0.1523999 -0.05927,0.0635 -0.148166,0.0635 h -1.045633 v 1.579032 q 0,0.0889 -0.0635,0.1523999 -0.0635,0.0635 -0.1524,0.0635 -0.0889,0 -0.1524,-0.0635 -0.05927,-0.0635 -0.05927,-0.1523999 z" />
      <path
         id="path1773"
         style="font-style:normal;font-variant:normal;font-weight:normal;font-stretch:normal;font-size:4.23333px;font-family:OCRA;-inkscape-font-specification:OCRA;fill:#ffffff;fill-opacity:1;stroke-width:0.264583"
         d="M 17.263524,8.4749929 V 8.297193 q 0,-0.0889 0.05927,-0.1523998 0.0635,-0.0635 0.1524,-0.0635 h 1.680632 q 0.0889,0 0.1524,0.0635 0.0635,0.0635 0.0635,0.1523998 v 0.1777999 q 0,0.0889 -0.0635,0.1523999 -0.0635,0.0635 -0.1524,0.0635 h -1.680632 q -0.0889,0 -0.1524,-0.0635 -0.05927,-0.0635 -0.05927,-0.1523999 z" />
      <path
         id="path1775"
         style="font-style:normal;font-variant:normal;font-weight:normal;font-stretch:normal;font-size:4.23333px;font-family:OCRA;-inkscape-font-specification:OCRA;fill:#ffffff;fill-opacity:1;stroke-width:0.264583"
         d="M 20.322767,9.9481916 V 6.8578609 q 0,-0.084667 0.05927,-0.1481665 0.0635,-0.0635 0.1524,-0.0635 0.0889,0 0.1524,0.0635 0.0635,0.0635 0.0635,0.1481665 v 2.6627644 h 1.464732 q 0.0889,0 0.1524,0.0635 0.0635,0.0635 0.0635,0.1481665 0,0.0889 -0.0635,0.1523999 -0.0635,0.0635 -0.1524,0.0635 z" />
      <path
         id="path1777"
         style="font-style:normal;font-variant:normal;font-weight:normal;font-stretch:normal;font-size:4.23333px;font-family:OCRA;-inkscape-font-specification:OCRA;fill:#ffffff;fill-opacity:1;stroke-width:0.264583"
         d="m 23.382009,9.7322918 q 0,-0.084667 0.05927,-0.1481665 0.0635,-0.0635 0.152399,-0.0635 h 0.626533 V 7.0737607 h -0.626533 q -0.0889,0 -0.152399,-0.0635 -0.05927,-0.0635 -0.05927,-0.1523999 0,-0.084667 0.05927,-0.1481665 0.0635,-0.0635 0.152399,-0.0635 h 1.680632 q 0.0889,0 0.1524,0.0635 0.0635,0.0635 0.0635,0.1481665 0,0.0889 -0.0635,0.1523999 -0.0635,0.0635 -0.1524,0.0635 h -0.626532 v 2.4468646 h 0.626532 q 0.0889,0 0.1524,0.0635 0.0635,0.0635 0.0635,0.1481665 0,0.0889 -0.0635,0.1523999 -0.0635,0.0635 -0.1524,0.0635 h -1.680632 q -0.0889,0 -0.152399,-0.0635 -0.05927,-0.0635 -0.05927,-0.1523999 z" />
      <path
         id="path1779"
         style="font-style:normal;font-variant:normal;font-weight:normal;font-stretch:normal;font-size:4.23333px;font-family:OCRA;-inkscape-font-specification:OCRA;fill:#ffffff;fill-opacity:1;stroke-width:0.264583"
         d="M 26.441251,9.7322918 V 6.6461944 h 0.563033 l 1.117599,2.5484645 v -2.336798 q 0,-0.084667 0.05927,-0.1481665 0.0635,-0.0635 0.1524,-0.0635 0.0889,0 0.152399,0.0635 0.0635,0.0635 0.0635,0.1481665 V 9.9481916 H 27.982183 L 26.868817,7.4081938 v 2.324098 q 0,0.0889 -0.0635,0.1523999 -0.0635,0.0635 -0.1524,0.0635 -0.0889,0 -0.1524,-0.0635 -0.05927,-0.0635 -0.05927,-0.1523999 z" />
      <path
         id="path1781"
         style="font-style:normal;font-variant:normal;font-weight:normal;font-stretch:normal;font-size:4.23333px;font-family:OCRA;-inkscape-font-specification:OCRA;fill:#ffffff;fill-opacity:1;stroke-width:0.264583"
         d="M 29.500493,9.7322918 V 6.8578609 q 0,-0.084667 0.05927,-0.1481665 0.0635,-0.0635 0.1524,-0.0635 0.0889,0 0.1524,0.0635 0.0635,0.0635 0.0635,0.1481665 v 0.9736659 l 1.325032,-1.1345324 q 0.0635,-0.0508 0.1397,-0.0508 0.0889,0 0.1524,0.0635 0.0635,0.0635 0.0635,0.1481665 0,0.1015999 -0.0762,0.1650999 L 30.04236,8.297193 31.532492,9.5714253 q 0.0762,0.0635 0.0762,0.1608665 0,0.0889 -0.0635,0.1523999 -0.0635,0.0635 -0.1524,0.0635 -0.0762,0 -0.1397,-0.0508 L 29.92806,8.7628593 v 0.9694325 q 0,0.0889 -0.0635,0.1523999 -0.0635,0.0635 -0.1524,0.0635 -0.0889,0 -0.1524,-0.0635 -0.05927,-0.0635 -0.05927,-0.1523999 z" />
    </g>
    <g
       style="font-style:normal;font-weight:normal;font-size:2.11667px;line-height:1.25;font-family:sans-serif;fill:#000000;fill-opacity:1;stroke:none;stroke-width:0.264583"
       id="text935"
       aria-label="AC">
      <path
         id="path1799"
         style="font-style:normal;font-variant:normal;font-weight:normal;font-stretch:normal;font-size:2.11667px;font-family:OCRA;-inkscape-font-specification:OCRA;fill:#ffffff;fill-opacity:1;stroke-width:0.264583"
         d="m 5.1835836,9.6685496 0.429684,-1.4668523 q 0.010583,-0.033867 0.0381,-0.055033 0.027517,-0.021167 0.0635,-0.021167 0.035983,0 0.065617,0.021167 0.029633,0.021167 0.0381,0.055033 l 0.4275673,1.4668523 q 0,0.04445 -0.033867,0.0762 -0.03175,0.03175 -0.0762,0.03175 -0.035983,0 -0.0635,-0.021167 -0.027517,-0.021167 -0.0381,-0.055033 L 5.9519347,9.4166659 H 5.4799173 l -0.08255,0.2836337 q -0.010583,0.033867 -0.040217,0.055033 -0.027517,0.021167 -0.0635,0.021167 -0.04445,0 -0.078317,-0.03175 -0.03175,-0.03175 -0.03175,-0.0762 z M 5.5434174,9.2028822 H 5.8884346 L 5.7148677,8.614448 Z" />
      <path
         id="path1801"
         style="font-style:normal;font-variant:normal;font-weight:normal;font-stretch:normal;font-size:2.11667px;font-family:OCRA;-inkscape-font-specification:OCRA;fill:#ffffff;fill-opacity:1;stroke-width:0.264583"
         d="m 6.7195583,8.9509985 q 0,-0.1121835 0.0508,-0.218017 L 6.984142,8.3011808 q 0.033867,-0.0762 0.1121835,-0.1248835 0.080433,-0.0508 0.1756836,-0.0508 h 0.3937006 q 0.04445,0 0.0762,0.03175 0.03175,0.03175 0.03175,0.074083 0,0.04445 -0.03175,0.0762 -0.03175,0.03175 -0.0762,0.03175 H 7.2720091 q -0.065617,0 -0.093134,0.059267 l -0.218017,0.429684 q -0.027517,0.059267 -0.027517,0.1227669 0,0.0635 0.027517,0.1227668 l 0.218017,0.429684 q 0.027517,0.059267 0.093134,0.059267 h 0.3937006 q 0.04445,0 0.0762,0.03175 0.03175,0.03175 0.03175,0.074084 0,0.04445 -0.03175,0.0762 -0.03175,0.03175 -0.0762,0.03175 H 7.2720091 q -0.093134,0 -0.1714502,-0.0508 -0.0762,-0.0508 -0.1143002,-0.1270002 -0.1566336,-0.2984505 -0.2159003,-0.429684 -0.0508,-0.1079502 -0.0508,-0.2180173 z" />
    </g>
    <g
       style="font-style:normal;font-weight:normal;font-size:2.11667px;line-height:1.25;font-family:sans-serif;fill:#000000;fill-opacity:1;stroke:none;stroke-width:0.264583"
       id="text935-3"
       aria-label="AC">
      <path
         id="path1804"
         style="font-style:normal;font-variant:normal;font-weight:normal;font-stretch:normal;font-size:2.11667px;font-family:OCRA;-inkscape-font-specification:OCRA;fill:#ffffff;fill-opacity:1;stroke-width:0.264583"
         d="m 5.0835837,15.66855 0.4296839,-1.466853 q 0.010583,-0.03387 0.0381,-0.05503 0.027517,-0.02117 0.0635,-0.02117 0.035983,0 0.065617,0.02117 0.029633,0.02117 0.0381,0.05503 l 0.4275673,1.466853 q 0,0.04445 -0.033867,0.0762 -0.03175,0.03175 -0.0762,0.03175 -0.035983,0 -0.0635,-0.02117 -0.027517,-0.02117 -0.0381,-0.05503 l -0.08255,-0.283634 H 5.3799174 l -0.08255,0.283634 q -0.010583,0.03387 -0.040217,0.05503 -0.027517,0.02117 -0.0635,0.02117 -0.04445,0 -0.078317,-0.03175 -0.03175,-0.03175 -0.03175,-0.0762 z M 5.4434175,15.202882 H 5.7884347 L 5.6148678,14.614448 Z" />
      <path
         id="path1806"
         style="font-style:normal;font-variant:normal;font-weight:normal;font-stretch:normal;font-size:2.11667px;font-family:OCRA;-inkscape-font-specification:OCRA;fill:#ffffff;fill-opacity:1;stroke-width:0.264583"
         d="m 6.6195584,14.950998 q 0,-0.112183 0.0508,-0.218017 l 0.2137837,-0.4318 q 0.033867,-0.0762 0.1121835,-0.124884 0.080434,-0.0508 0.1756836,-0.0508 h 0.3937006 q 0.04445,0 0.0762,0.03175 0.03175,0.03175 0.03175,0.07408 0,0.04445 -0.03175,0.0762 -0.03175,0.03175 -0.0762,0.03175 H 7.1720092 q -0.065617,0 -0.093133,0.05927 l -0.218017,0.429684 q -0.027517,0.05927 -0.027517,0.122766 0,0.0635 0.027517,0.122767 l 0.218017,0.429684 q 0.027517,0.05927 0.093133,0.05927 h 0.3937006 q 0.04445,0 0.0762,0.03175 0.03175,0.03175 0.03175,0.07408 0,0.04445 -0.03175,0.0762 -0.03175,0.03175 -0.0762,0.03175 H 7.1720092 q -0.093133,0 -0.1714503,-0.0508 -0.0762,-0.0508 -0.1143001,-0.127001 -0.1566336,-0.29845 -0.2159004,-0.429684 -0.0508,-0.10795 -0.0508,-0.218017 z" />
    </g>
    <g
       style="font-style:normal;font-weight:normal;font-size:2.11667px;line-height:1.25;font-family:sans-serif;fill:#000000;fill-opacity:1;stroke:none;stroke-width:0.264583"
       id="text935-9"
       aria-label="-Vo">
      <path
         id="path1809"
         style="font-style:normal;font-variant:normal;font-weight:normal;font-stretch:normal;font-size:2.11667px;font-family:OCRA;-inkscape-font-specification:OCRA;fill:#ffffff;fill-opacity:1;stroke-width:0.264583"
         d="m 30,2.7144015 v -0.0889 q 0,-0.04445 0.02963,-0.0762 0.03175,-0.03175 0.0762,-0.03175 h 0.840318 q 0.04445,0 0.0762,0.03175 0.03175,0.03175 0.03175,0.0762 v 0.0889 q 0,0.04445 -0.03175,0.0762 -0.03175,0.03175 -0.0762,0.03175 H 30.10583 q -0.04445,0 -0.0762,-0.03175 Q 30,2.7588515 30,2.7144015 Z" />
      <path
         id="path1811"
         style="font-style:normal;font-variant:normal;font-weight:normal;font-stretch:normal;font-size:2.11667px;font-family:OCRA;-inkscape-font-specification:OCRA;fill:#ffffff;fill-opacity:1;stroke-width:0.264583"
         d="M 31.529625,2.2889508 V 1.9058336 q 0,-0.042333 0.02963,-0.074083 0.03175,-0.03175 0.0762,-0.03175 0.04445,0 0.0762,0.03175 0.03175,0.03175 0.03175,0.074083 v 0.3407838 l 0.313267,0.8001012 0.313267,-0.8001012 V 1.9058336 q 0,-0.042333 0.02963,-0.074083 0.03175,-0.03175 0.0762,-0.03175 0.04445,0 0.0762,0.03175 0.03175,0.03175 0.03175,0.074083 v 0.3810006 l -0.427568,1.096435 q -0.02752,0.067733 -0.09948,0.067733 -0.07408,0 -0.1016,-0.067733 z" />
      <path
         id="path1813"
         style="font-style:normal;font-variant:normal;font-weight:normal;font-stretch:normal;font-size:2.11667px;font-family:OCRA;-inkscape-font-specification:OCRA;fill:#ffffff;fill-opacity:1;stroke-width:0.264583"
         d="m 33.05925,3.0678853 v -0.436034 q 0,-0.074083 0.03387,-0.1375835 0.03387,-0.0635 0.06138,-0.0889 0.02752,-0.0254 0.09313,-0.080434 0.08678,-0.0762 0.205317,-0.0762 h 0.264584 q 0.02752,0 0.05292,0.00423 0.0254,0.00212 0.0508,0.014817 0.0254,0.010583 0.04022,0.016933 0.01482,0.00423 0.04022,0.0254 0.0254,0.01905 0.03175,0.0254 0.0085,0.00423 0.03598,0.029633 0.02963,0.023283 0.03175,0.0254 0.112183,0.097367 0.112183,0.2413003 v 0.436034 q 0,0.033867 -0.0042,0.0635 -0.0042,0.027517 -0.01905,0.055033 -0.01482,0.027517 -0.02328,0.04445 -0.0064,0.014817 -0.03387,0.042333 -0.02752,0.027517 -0.03387,0.033867 -0.0042,0.00635 -0.04022,0.0381 l -0.03598,0.029633 q -0.08678,0.0762 -0.205317,0.0762 H 33.45295 q -0.03387,0 -0.06562,-0.00635 -0.02963,-0.00847 -0.0508,-0.014817 -0.02117,-0.00847 -0.0508,-0.027517 -0.02752,-0.01905 -0.04022,-0.027517 -0.01058,-0.00847 -0.04022,-0.033867 -0.02752,-0.0254 -0.03598,-0.03175 -0.11006,-0.09101 -0.11006,-0.2412938 z m 0.213783,0 q 0,0.0254 0.0127,0.048684 0.0127,0.023283 0.0254,0.035983 0.01482,0.0127 0.04022,0.033867 0.0254,0.01905 0.03387,0.0254 0.03175,0.0254 0.06773,0.0254 h 0.264584 q 0.02963,0 0.05292,-0.0127 0.02328,-0.0127 0.05503,-0.04445 0.03175,-0.03175 0.03598,-0.033867 0.0381,-0.029633 0.0381,-0.078317 v -0.436034 q 0,-0.055033 -0.0635,-0.1121835 -0.0635,-0.05715 -0.118534,-0.05715 H 33.45295 q -0.02963,0 -0.05292,0.0127 -0.02328,0.0127 -0.05503,0.04445 -0.03175,0.03175 -0.03598,0.033867 -0.03598,0.029633 -0.03598,0.078317 z" />
    </g>
    <g
       style="font-style:normal;font-weight:normal;font-size:2.11667px;line-height:1.25;font-family:sans-serif;fill:#000000;fill-opacity:1;stroke:none;stroke-width:0.264583"
       id="text935-9-8"
       aria-label="+Vo">
      <path
         id="path1816"
         style="font-style:normal;font-variant:normal;font-weight:normal;font-stretch:normal;font-size:2.11667px;font-family:OCRA;-inkscape-font-specification:OCRA;fill:#ffffff;fill-opacity:1;stroke-width:0.264583"
         d="M 30.029634,20.401702 Q 30,20.369952 30,20.325502 q 0,-0.04445 0.02963,-0.0762 0.03175,-0.03175 0.0762,-0.03175 h 0.313267 v -0.313267 q 0,-0.04233 0.03175,-0.07408 0.03175,-0.03175 0.0762,-0.03175 0.04233,0 0.07408,0.03175 0.03175,0.03175 0.03175,0.07408 v 0.313267 h 0.313267 q 0.04445,0 0.0762,0.03175 0.03175,0.03175 0.03175,0.0762 0,0.04445 -0.03175,0.0762 -0.03175,0.02963 -0.0762,0.02963 h -0.313267 v 0.313267 q 0,0.04445 -0.03175,0.0762 -0.03175,0.03175 -0.07408,0.03175 -0.04445,0 -0.0762,-0.03175 -0.03175,-0.03175 -0.03175,-0.0762 V 20.431332 H 30.10583 q -0.04445,0 -0.0762,-0.02963 z" />
      <path
         id="path1818"
         style="font-style:normal;font-variant:normal;font-weight:normal;font-stretch:normal;font-size:2.11667px;font-family:OCRA;-inkscape-font-specification:OCRA;fill:#ffffff;fill-opacity:1;stroke-width:0.264583"
         d="m 31.529625,19.988951 v -0.383117 q 0,-0.04233 0.02963,-0.07408 0.03175,-0.03175 0.0762,-0.03175 0.04445,0 0.0762,0.03175 0.03175,0.03175 0.03175,0.07408 v 0.340784 l 0.313267,0.800101 0.313267,-0.800101 v -0.340784 q 0,-0.04233 0.02963,-0.07408 0.03175,-0.03175 0.0762,-0.03175 0.04445,0 0.0762,0.03175 0.03175,0.03175 0.03175,0.07408 v 0.381 l -0.427568,1.096435 q -0.02752,0.06773 -0.09948,0.06773 -0.07408,0 -0.1016,-0.06773 z" />
      <path
         id="path1820"
         style="font-style:normal;font-variant:normal;font-weight:normal;font-stretch:normal;font-size:2.11667px;font-family:OCRA;-inkscape-font-specification:OCRA;fill:#ffffff;fill-opacity:1;stroke-width:0.264583"
         d="m 33.05925,20.767886 v -0.436034 q 0,-0.07408 0.03387,-0.137584 0.03387,-0.0635 0.06138,-0.0889 0.02752,-0.0254 0.09313,-0.08043 0.08678,-0.0762 0.205317,-0.0762 h 0.264584 q 0.02752,0 0.05292,0.0042 0.0254,0.0021 0.0508,0.01482 0.0254,0.01058 0.04022,0.01693 0.01482,0.0042 0.04022,0.0254 0.0254,0.01905 0.03175,0.0254 0.0085,0.0042 0.03598,0.02963 0.02963,0.02328 0.03175,0.0254 0.112183,0.09737 0.112183,0.241301 v 0.436034 q 0,0.03387 -0.0042,0.0635 -0.0042,0.02752 -0.01905,0.05503 -0.01482,0.02752 -0.02328,0.04445 -0.0064,0.01482 -0.03387,0.04233 -0.02752,0.02752 -0.03387,0.03387 -0.0042,0.0063 -0.04022,0.0381 l -0.03598,0.02963 q -0.08678,0.0762 -0.205317,0.0762 H 33.45295 q -0.03387,0 -0.06562,-0.0063 -0.02963,-0.0085 -0.0508,-0.01482 -0.02117,-0.0085 -0.0508,-0.02752 -0.02752,-0.01905 -0.04022,-0.02752 -0.01058,-0.0085 -0.04022,-0.03387 -0.02752,-0.0254 -0.03598,-0.03175 -0.110067,-0.09102 -0.110067,-0.2413 z m 0.213783,0 q 0,0.0254 0.0127,0.04868 0.0127,0.02328 0.0254,0.03598 0.01482,0.0127 0.04022,0.03387 0.0254,0.01905 0.03387,0.0254 0.03175,0.0254 0.06773,0.0254 h 0.264584 q 0.02963,0 0.05292,-0.0127 0.02328,-0.0127 0.05503,-0.04445 0.03175,-0.03175 0.03598,-0.03387 0.0381,-0.02963 0.0381,-0.07832 v -0.436034 q 0,-0.05503 -0.0635,-0.112184 -0.0635,-0.05715 -0.118534,-0.05715 H 33.45295 q -0.02963,0 -0.05292,0.0127 -0.02328,0.0127 -0.05503,0.04445 -0.03175,0.03175 -0.03598,0.03387 -0.03598,0.02963 -0.03598,0.07832 z" />
    </g>
    <g
       style="font-style:normal;font-weight:normal;font-size:2.82222px;line-height:1.25;font-family:sans-serif;fill:#000000;fill-opacity:1;stroke:none;stroke-width:0.264583"
       id="text931-2"
       aria-label="HLK 5M12">
      <path
         id="path1784"
         style="font-style:normal;font-variant:normal;font-weight:normal;font-stretch:normal;font-size:2.82222px;font-family:OCRA;-inkscape-font-specification:OCRA;fill:#ffffff;fill-opacity:1;stroke-width:0.264583"
         d="m 12.489563,14.273913 v -1.916288 q 0,-0.05644 0.03951,-0.09878 0.04233,-0.04233 0.1016,-0.04233 0.05927,0 0.1016,0.04233 0.04233,0.04233 0.04233,0.09878 v 0.815622 h 0.835378 v -0.815622 q 0,-0.05644 0.03951,-0.09878 0.04233,-0.04233 0.1016,-0.04233 0.05927,0 0.1016,0.04233 0.04233,0.04233 0.04233,0.09878 v 1.916288 q 0,0.05927 -0.04233,0.101599 -0.04233,0.04233 -0.1016,0.04233 -0.05927,0 -0.1016,-0.04233 -0.03951,-0.04233 -0.03951,-0.101599 v -0.815622 h -0.835378 v 0.815622 q 0,0.05927 -0.04233,0.101599 -0.04233,0.04233 -0.1016,0.04233 -0.05927,0 -0.1016,-0.04233 -0.03951,-0.04233 -0.03951,-0.101599 z" />
      <path
         id="path1786"
         style="font-style:normal;font-variant:normal;font-weight:normal;font-stretch:normal;font-size:2.82222px;font-family:OCRA;-inkscape-font-specification:OCRA;fill:#ffffff;fill-opacity:1;stroke-width:0.264583"
         d="m 14.529058,14.417846 v -2.060221 q 0,-0.05644 0.03951,-0.09878 0.04233,-0.04233 0.1016,-0.04233 0.05927,0 0.1016,0.04233 0.04233,0.04233 0.04233,0.09878 v 1.775176 h 0.976489 q 0.05927,0 0.1016,0.04233 0.04233,0.04233 0.04233,0.09878 0,0.05927 -0.04233,0.101599 -0.04233,0.04233 -0.1016,0.04233 z" />
      <path
         id="path1788"
         style="font-style:normal;font-variant:normal;font-weight:normal;font-stretch:normal;font-size:2.82222px;font-family:OCRA;-inkscape-font-specification:OCRA;fill:#ffffff;fill-opacity:1;stroke-width:0.264583"
         d="m 16.568553,14.273913 v -1.916288 q 0,-0.05644 0.03951,-0.09878 0.04233,-0.04233 0.1016,-0.04233 0.05927,0 0.1016,0.04233 0.04233,0.04233 0.04233,0.09878 v 0.649111 l 0.883355,-0.756355 q 0.04233,-0.03387 0.09313,-0.03387 0.05927,0 0.1016,0.04233 0.04233,0.04233 0.04233,0.09878 0,0.06773 -0.0508,0.110067 l -0.993422,0.849488 0.993422,0.849488 q 0.0508,0.04233 0.0508,0.107245 0,0.05927 -0.04233,0.101599 -0.04233,0.04233 -0.1016,0.04233 -0.0508,0 -0.09313,-0.03387 l -0.883355,-0.756355 v 0.646289 q 0,0.05927 -0.04233,0.101599 -0.04233,0.04233 -0.1016,0.04233 -0.05927,0 -0.1016,-0.04233 -0.03951,-0.04233 -0.03951,-0.101599 z" />
      <path
         id="path1790"
         style="font-style:normal;font-variant:normal;font-weight:normal;font-stretch:normal;font-size:2.82222px;font-family:OCRA;-inkscape-font-specification:OCRA;fill:#ffffff;fill-opacity:1;stroke-width:0.264583"
         d="m 20.647543,14.155379 q 0,-0.05927 0.03951,-0.09878 0.04233,-0.04233 0.1016,-0.04233 0.03387,0 0.05645,0.01129 l 0.253999,0.107244 h 0.668867 v -0.67451 h -0.841022 v -1.241777 h 0.982133 q 0.05927,0 0.1016,0.04233 0.04233,0.04233 0.04233,0.09878 0,0.05927 -0.04233,0.1016 -0.04233,0.04233 -0.1016,0.04233 h -0.697089 v 0.671689 h 0.555978 q 0.112888,0 0.197555,0.08749 0.08749,0.08467 0.08749,0.197556 v 0.67451 q 0,0.115712 -0.08749,0.200378 -0.08467,0.08467 -0.197555,0.08467 h -0.640644 q -0.05645,0 -0.115711,-0.01411 -0.05645,-0.01411 -0.09313,-0.02822 -0.03669,-0.01693 -0.09878,-0.04516 -0.06209,-0.03104 -0.08749,-0.04233 -0.08467,-0.03669 -0.08467,-0.132645 z" />
      <path
         id="path1792"
         style="font-style:normal;font-variant:normal;font-weight:normal;font-stretch:normal;font-size:2.82222px;font-family:OCRA;-inkscape-font-specification:OCRA;fill:#ffffff;fill-opacity:1;stroke-width:0.264583"
         d="m 22.687039,14.273913 v -2.057399 h 0.355599 l 0.347133,0.493889 0.344311,-0.493889 h 0.358422 v 2.057399 q 0,0.05927 -0.04233,0.101599 -0.04233,0.04233 -0.1016,0.04233 -0.05927,0 -0.1016,-0.04233 -0.03951,-0.04233 -0.03951,-0.101599 v -1.66511 l -0.276578,0.39511 v 0.07338 q 0,0.05927 -0.04233,0.1016 -0.04233,0.04233 -0.09878,0.04233 -0.05927,0 -0.101599,-0.04233 -0.04233,-0.04233 -0.04233,-0.1016 v -0.07338 l -0.273755,-0.389466 v 1.659466 q 0,0.05927 -0.04233,0.101599 -0.04233,0.04233 -0.1016,0.04233 -0.05927,0 -0.1016,-0.04233 -0.03951,-0.04233 -0.03951,-0.101599 z" />
      <path
         id="path1794"
         style="font-style:normal;font-variant:normal;font-weight:normal;font-stretch:normal;font-size:2.82222px;font-family:OCRA;-inkscape-font-specification:OCRA;fill:#ffffff;fill-opacity:1;stroke-width:0.264583"
         d="m 24.726533,14.273913 q 0,-0.05645 0.03951,-0.09878 0.04233,-0.04233 0.1016,-0.04233 h 0.417689 V 12.50156 h -0.417689 q -0.05927,0 -0.1016,-0.04233 -0.03951,-0.04233 -0.03951,-0.1016 0,-0.05644 0.03951,-0.09878 0.04233,-0.04233 0.1016,-0.04233 h 0.702733 v 1.916287 h 0.276578 v -0.575732 q 0,-0.05927 0.03951,-0.1016 0.04233,-0.04233 0.1016,-0.04233 0.05927,0 0.1016,0.04233 0.04233,0.04233 0.04233,0.1016 v 0.716844 q 0,0.05927 -0.04233,0.101599 -0.04233,0.04233 -0.1016,0.04233 h -1.120422 q -0.05927,0 -0.1016,-0.04233 -0.03951,-0.04233 -0.03951,-0.101599 z" />
      <path
         id="path1796"
         style="font-style:normal;font-variant:normal;font-weight:normal;font-stretch:normal;font-size:2.82222px;font-family:OCRA;-inkscape-font-specification:OCRA;fill:#ffffff;fill-opacity:1;stroke-width:0.264583"
         d="m 26.766028,14.417846 v -0.959555 q 0,-0.115711 0.08467,-0.197556 0.08467,-0.08467 0.200378,-0.08467 h 0.835377 v -0.674511 h -0.97931 q -0.05927,0 -0.1016,-0.04233 -0.03951,-0.04233 -0.03951,-0.1016 0,-0.05644 0.03951,-0.09878 0.04233,-0.04233 0.1016,-0.04233 h 0.97931 q 0.112889,0 0.197556,0.08467 0.08749,0.08467 0.08749,0.200377 v 0.674511 q 0,0.112889 -0.08467,0.197555 -0.08467,0.08467 -0.200378,0.08467 h -0.835377 v 0.67451 h 0.976488 q 0.05927,0 0.1016,0.04233 0.04233,0.04233 0.04233,0.09878 0,0.05927 -0.04233,0.101599 -0.04233,0.04233 -0.1016,0.04233 z" />
    </g>
  </g>
</svg>
