<?xml version="1.0" encoding="UTF-8" standalone="no"?>
<svg
   xmlns:dc="http://purl.org/dc/elements/1.1/"
   xmlns:cc="http://creativecommons.org/ns#"
   xmlns:rdf="http://www.w3.org/1999/02/22-rdf-syntax-ns#"
   xmlns:svg="http://www.w3.org/2000/svg"
   xmlns="http://www.w3.org/2000/svg"
   xmlns:sodipodi="http://sodipodi.sourceforge.net/DTD/sodipodi-0.dtd"
   xmlns:inkscape="http://www.inkscape.org/namespaces/inkscape"
   sodipodi:docname="HLK-5M12.svg"
   inkscape:version="1.0 (4035a4fb49, 2020-05-01)"
   id="svg8"
   version="1.1"
   viewBox="0 0 210 297"
   height="297mm"
   width="210mm">
  <defs
     id="defs2" />
  <sodipodi:namedview
     inkscape:window-maximized="1"
     inkscape:window-y="-8"
     inkscape:window-x="-8"
     inkscape:window-height="1009"
     inkscape:window-width="1920"
     inkscape:snap-object-midpoints="true"
     showgrid="false"
     inkscape:document-rotation="0"
     inkscape:current-layer="layer1"
     inkscape:document-units="mm"
     inkscape:cy="39.079997"
     inkscape:cx="79.60998"
     inkscape:zoom="6.7702667"
     inkscape:pageshadow="2"
     inkscape:pageopacity="0.0"
     borderopacity="1.0"
     bordercolor="#666666"
     pagecolor="#ffffff"
     id="base" />
  <metadata
     id="metadata5">
    <rdf:RDF>
      <cc:Work
         rdf:about="">
        <dc:format>image/svg+xml</dc:format>
        <dc:type
           rdf:resource="http://purl.org/dc/dcmitype/StillImage" />
        <dc:title></dc:title>
      </cc:Work>
    </rdf:RDF>
  </metadata>
  <g
     id="layer1"
     inkscape:groupmode="layer"
     inkscape:label="Ebene 1">
    <rect
       y="0"
       x="0"
       height="23.299999"
       width="38.099998"
       id="rect833"
       style="fill:#000000;fill-opacity:1;fill-rule:evenodd;stroke-width:0.264583" />
    <path
       d="M 2.6865017,7.7000243 A 1,1 0 0 0 1.7000001,8.6999613 1,1 0 0 0 2.7004558,9.700417 1,1 0 0 0 3.700393,8.6999613 1,1 0 0 0 2.7004558,7.7000243 a 1,1 0 0 0 -0.013954,0 z m -0.0031,0.250113 a 0.75,0.75 0 0 1 0.017055,0 0.75,0.75 0 0 1 0.7498239,0.749824 A 0.75,0.75 0 0 1 2.7004567,9.450303 0.75,0.75 0 0 1 1.9501143,8.6999613 0.75,0.75 0 0 1 2.6834017,7.9501373 Z"
       style="fill:#e6ab00;fill-opacity:1;stroke-width:0.264583"
       id="path859" />
    <path
       id="path859-1"
       style="fill:#e6ab00;fill-opacity:1;stroke-width:0.264583"
       d="m 2.6865021,13.700024 a 1,1 0 0 0 -0.986502,0.999937 1,1 0 0 0 1.000456,1.000456 1,1 0 0 0 0.999937,-1.000456 1,1 0 0 0 -0.999937,-0.999937 1,1 0 0 0 -0.01394,0 z m -0.0031,0.250113 a 0.75000001,0.75000001 0 0 1 0.01707,0 0.75000001,0.75000001 0 0 1 0.749824,0.749824 0.75000001,0.75000001 0 0 1 -0.749824,0.750342 0.75000001,0.75000001 0 0 1 -0.750342,-0.750342 0.75000001,0.75000001 0 0 1 0.733287,-0.749824 z" />
    <path
       id="path859-9"
       style="fill:#e6ab00;fill-opacity:1;stroke-width:0.264583"
       d="M 35.986502,1.7000243 A 1,1 0 0 0 35,2.6999623 a 1,1 0 0 0 1.000456,1.000455 1,1 0 0 0 0.999937,-1.000455 1,1 0 0 0 -0.999937,-0.999938 1,1 0 0 0 -0.01394,0 z m -0.0031,0.250114 a 0.75000001,0.75000001 0 0 1 0.01707,0 0.75000001,0.75000001 0 0 1 0.749824,0.749824 0.75000001,0.75000001 0 0 1 -0.749823,0.750342 0.75000001,0.75000001 0 0 1 -0.750343,-0.750342 0.75000001,0.75000001 0 0 1 0.733287,-0.749824 z" />
    <path
       id="path859-7"
       style="fill:#e6ab00;fill-opacity:1;stroke-width:0.264583"
       d="M 35.986502,19.600024 A 1,1 0 0 0 35,20.599962 a 1,1 0 0 0 1.000456,1.000455 1,1 0 0 0 0.999937,-1.000455 1,1 0 0 0 -0.999937,-0.999938 1,1 0 0 0 -0.01394,0 z m -0.0031,0.250114 a 0.75000001,0.75000001 0 0 1 0.01707,0 0.75000001,0.75000001 0 0 1 0.749824,0.749824 0.75000001,0.75000001 0 0 1 -0.749823,0.750342 0.75000001,0.75000001 0 0 1 -0.750343,-0.750342 0.75000001,0.75000001 0 0 1 0.733287,-0.749824 z" />
  </g>
</svg>
