<?xml version="1.0" encoding="UTF-8" standalone="no"?>
<svg
   xmlns:dc="http://purl.org/dc/elements/1.1/"
   xmlns:cc="http://creativecommons.org/ns#"
   xmlns:rdf="http://www.w3.org/1999/02/22-rdf-syntax-ns#"
   xmlns:svg="http://www.w3.org/2000/svg"
   xmlns="http://www.w3.org/2000/svg"
   xmlns:sodipodi="http://sodipodi.sourceforge.net/DTD/sodipodi-0.dtd"
   xmlns:inkscape="http://www.inkscape.org/namespaces/inkscape"
   width="25.956179mm"
   height="22.999769mm"
   viewBox="0 0 25.956179 22.999769"
   version="1.1"
   id="svg8"
   inkscape:version="1.0 (4035a4fb49, 2020-05-01)"
   sodipodi:docname="CR2032_PCB_3.svg">
  <defs
     id="defs2" />
  <sodipodi:namedview
     id="base"
     pagecolor="#ffffff"
     bordercolor="#666666"
     borderopacity="1.0"
     inkscape:pageopacity="0.0"
     inkscape:pageshadow="2"
     inkscape:zoom="3.959798"
     inkscape:cx="23.700926"
     inkscape:cy="89.496047"
     inkscape:document-units="mm"
     inkscape:current-layer="svg8"
     inkscape:document-rotation="0"
     showgrid="false"
     inkscape:snap-object-midpoints="true"
     inkscape:window-width="1920"
     inkscape:window-height="1009"
     inkscape:window-x="-8"
     inkscape:window-y="-8"
     inkscape:window-maximized="1" />
  <metadata
     id="metadata5">
    <rdf:RDF>
      <cc:Work
         rdf:about="">
        <dc:format>image/svg+xml</dc:format>
        <dc:type
           rdf:resource="http://purl.org/dc/dcmitype/StillImage" />
        <dc:title></dc:title>
      </cc:Work>
    </rdf:RDF>
  </metadata>
  <g
     transform="translate(-1.8828185e-4,-1.8828337e-4)"
     id="silkscreen">
    <path
       id="path833"
       style="fill:none;fill-opacity:1;stroke:#000000;stroke-width:0.26456693;stroke-opacity:1;stroke-miterlimit:4;stroke-dasharray:none"
       d="M 43.464844,0.11132812 A 43.353946,43.353949 0 0 0 1.3105469,33.345703 H 0.27539062 v 6.367188 a 43.353946,43.353949 0 0 0 -0.1640625,3.751953 43.353946,43.353949 0 0 0 0.1640625,3.755859 v 6.552735 H 1.3554688 A 43.353946,43.353949 0 0 0 43.464844,86.818359 43.353946,43.353949 0 0 0 85.574219,53.773438 H 97.992188 V 33.345703 H 85.619141 A 43.353946,43.353949 0 0 0 43.464844,0.11132812 Z"
       transform="scale(0.26458333)" />
    <ellipse
       ry="10.124042"
       rx="10.224042"
       cy="11.5"
       cx="11.5"
       id="path833-7"
       style="fill:none;fill-opacity:1;stroke:#000000;stroke-width:0.07;stroke-opacity:1;stroke-miterlimit:4;stroke-dasharray:none" />
    <g
       transform="translate(0,-0.41920572)"
       style="font-size:0.79375px;line-height:1.25;font-family:sans-serif;stroke-width:0.264583"
       id="minus"
       aria-label="-">
      <path
         id="path927"
         style="font-style:normal;font-variant:normal;font-weight:normal;font-stretch:normal;font-size:1.5px;font-family:OCRA;-inkscape-font-specification:OCRA;stroke-width:0.264583"
         d="m 3.5471352,10.058894 v -0.063 q 0,-0.0315 0.021,-0.054 0.0225,-0.0225 0.054,-0.0225 h 0.5955 q 0.0315,0 0.054,0.0225 0.0225,0.0225 0.0225,0.054 v 0.063 q 0,0.0315 -0.0225,0.054 -0.0225,0.0225 -0.054,0.0225 h -0.5955 q -0.0315,0 -0.054,-0.0225 -0.021,-0.0225 -0.021,-0.054 z" />
    </g>
    <g
       transform="translate(0,-0.23110912)"
       style="font-size:0.79375px;line-height:1.25;font-family:sans-serif;stroke-width:0.264583"
       id="plus"
       aria-label="+">
      <path
         id="path924"
         style="font-style:normal;font-variant:normal;font-weight:normal;font-stretch:normal;font-size:1.5px;font-family:OCRA;-inkscape-font-specification:OCRA;stroke-width:0.264583"
         d="m 23.631242,10.158797 q -0.021,-0.0225 -0.021,-0.054 0,-0.0315 0.021,-0.054 0.0225,-0.0225 0.054,-0.0225 h 0.222 V 9.8062974 q 0,-0.03 0.0225,-0.0525 0.0225,-0.0225 0.054,-0.0225 0.03,0 0.0525,0.0225 0.0225,0.0225 0.0225,0.0525 v 0.2219996 h 0.222 q 0.0315,0 0.054,0.0225 0.0225,0.0225 0.0225,0.054 0,0.0315 -0.0225,0.054 -0.0225,0.021 -0.054,0.021 h -0.222 v 0.222 q 0,0.0315 -0.0225,0.054 -0.0225,0.0225 -0.0525,0.0225 -0.0315,0 -0.054,-0.0225 -0.0225,-0.0225 -0.0225,-0.054 v -0.222 h -0.222 q -0.0315,0 -0.054,-0.021 z" />
    </g>
    <g
       style="font-size:1.5px;line-height:1.25;font-family:sans-serif;stroke-width:0.264583"
       id="CR2032"
       aria-label="2 x CR2032">
      <path
         id="path907"
         style="font-style:normal;font-variant:normal;font-weight:normal;font-stretch:normal;font-size:1.5px;font-family:OCRA;-inkscape-font-specification:OCRA;stroke-width:0.264583"
         d="m 7.5636593,12.118862 v -0.51 q 0,-0.0615 0.045,-0.105 0.045,-0.045 0.1065,-0.045 h 0.444 v -0.3585 h -0.5205 q -0.0315,0 -0.054,-0.0225 -0.021,-0.0225 -0.021,-0.054 0,-0.03 0.021,-0.0525 0.0225,-0.0225 0.054,-0.0225 h 0.5205 q 0.06,0 0.105,0.045 0.0465,0.045 0.0465,0.1065 v 0.3585 q 0,0.06 -0.045,0.105 -0.045,0.045 -0.1065,0.045 h -0.444 v 0.3585 h 0.519 q 0.0315,0 0.054,0.0225 0.0225,0.0225 0.0225,0.0525 0,0.0315 -0.0225,0.054 -0.0225,0.0225 -0.054,0.0225 z" />
      <path
         id="path909"
         style="font-style:normal;font-variant:normal;font-weight:normal;font-stretch:normal;font-size:1.5px;font-family:OCRA;-inkscape-font-specification:OCRA;stroke-width:0.264583"
         d="m 9.7316281,12.042362 q 0,-0.0285 0.015,-0.048 l 0.2594999,-0.312 -0.2414999,-0.291 q -0.018,-0.0225 -0.018,-0.048 0,-0.0315 0.0225,-0.054 0.0225,-0.0225 0.054,-0.0225 0.0345,0 0.0585,0.0285 l 0.2234999,0.2685 0.222,-0.2685 q 0.024,-0.0285 0.0585,-0.0285 0.0315,0 0.054,0.0225 0.0225,0.0225 0.0225,0.054 0,0.0255 -0.018,0.048 l -0.2415,0.291 0.2595,0.312 q 0.0165,0.021 0.0165,0.048 0,0.0315 -0.0225,0.054 -0.0225,0.0225 -0.054,0.0225 -0.036,0 -0.0585,-0.027 l -0.2385,-0.2895 -0.2399999,0.2895 q -0.0225,0.027 -0.0585,0.027 -0.0315,0 -0.054,-0.0225 -0.021,-0.0225 -0.021,-0.054 z" />
      <path
         id="path911"
         style="font-style:normal;font-variant:normal;font-weight:normal;font-stretch:normal;font-size:1.5px;font-family:OCRA;-inkscape-font-specification:OCRA;stroke-width:0.264583"
         d="m 11.899597,11.533862 q 0,-0.0795 0.036,-0.1545 l 0.1515,-0.306 q 0.024,-0.054 0.0795,-0.0885 0.057,-0.036 0.1245,-0.036 h 0.279 q 0.0315,0 0.054,0.0225 0.0225,0.0225 0.0225,0.0525 0,0.0315 -0.0225,0.054 -0.0225,0.0225 -0.054,0.0225 h -0.279 q -0.0465,0 -0.066,0.042 l -0.1545,0.3045 q -0.0195,0.042 -0.0195,0.087 0,0.045 0.0195,0.087 l 0.1545,0.3045 q 0.0195,0.042 0.066,0.042 h 0.279 q 0.0315,0 0.054,0.0225 0.0225,0.0225 0.0225,0.0525 0,0.0315 -0.0225,0.054 -0.0225,0.0225 -0.054,0.0225 h -0.279 q -0.066,0 -0.1215,-0.036 -0.054,-0.036 -0.081,-0.09 -0.111,-0.2115 -0.153,-0.3045 -0.036,-0.0765 -0.036,-0.1545 z" />
      <path
         id="path913"
         style="font-style:normal;font-variant:normal;font-weight:normal;font-stretch:normal;font-size:1.5px;font-family:OCRA;-inkscape-font-specification:OCRA;stroke-width:0.264583"
         d="m 12.983581,12.042362 v -1.0935 h 0.519 q 0.093,0 0.1605,0.0675 0.0675,0.0675 0.0675,0.1605 v 0.078 q 0,0.093 -0.069,0.1605 -0.0675,0.0675 -0.159,0.0675 h -0.087 l 0.3045,0.522 q 0.0105,0.021 0.0105,0.0375 0,0.0315 -0.0225,0.054 -0.0225,0.0225 -0.054,0.0225 -0.0435,0 -0.066,-0.0375 l -0.3495,-0.5985 h -0.1035 v 0.5595 q 0,0.0315 -0.0225,0.054 -0.0225,0.0225 -0.054,0.0225 -0.0315,0 -0.054,-0.0225 -0.021,-0.0225 -0.021,-0.054 z m 0.1515,-0.711 h 0.3675 q 0.03,0 0.0525,-0.0225 0.024,-0.024 0.024,-0.054 v -0.078 q 0,-0.0315 -0.024,-0.054 -0.0225,-0.0225 -0.0525,-0.0225 h -0.3675 z" />
      <path
         id="path915"
         style="font-style:normal;font-variant:normal;font-weight:normal;font-stretch:normal;font-size:1.5px;font-family:OCRA;-inkscape-font-specification:OCRA;stroke-width:0.264583"
         d="m 14.067566,12.118862 v -0.51 q 0,-0.0615 0.045,-0.105 0.045,-0.045 0.1065,-0.045 h 0.444 v -0.3585 h -0.5205 q -0.0315,0 -0.054,-0.0225 -0.021,-0.0225 -0.021,-0.054 0,-0.03 0.021,-0.0525 0.0225,-0.0225 0.054,-0.0225 h 0.5205 q 0.06,0 0.105,0.045 0.0465,0.045 0.0465,0.1065 v 0.3585 q 0,0.06 -0.045,0.105 -0.045,0.045 -0.1065,0.045 h -0.444 v 0.3585 h 0.519 q 0.0315,0 0.054,0.0225 0.0225,0.0225 0.0225,0.0525 0,0.0315 -0.0225,0.054 -0.0225,0.0225 -0.054,0.0225 z" />
      <path
         id="path917"
         style="font-style:normal;font-variant:normal;font-weight:normal;font-stretch:normal;font-size:1.5px;font-family:OCRA;-inkscape-font-specification:OCRA;stroke-width:0.264583"
         d="m 15.15155,11.967362 v -0.867 q 0,-0.0615 0.045,-0.1065 0.045,-0.045 0.1065,-0.045 h 0.444 q 0.06,0 0.105,0.045 0.0465,0.045 0.0465,0.1065 v 0.867 q 0,0.0615 -0.0465,0.1065 -0.045,0.045 -0.105,0.045 h -0.444 q -0.0615,0 -0.1065,-0.045 -0.045,-0.045 -0.045,-0.1065 z m 0.1515,0 h 0.444 v -0.867 h -0.444 z" />
      <path
         id="path919"
         style="font-style:normal;font-variant:normal;font-weight:normal;font-stretch:normal;font-size:1.5px;font-family:OCRA;-inkscape-font-specification:OCRA;stroke-width:0.264583"
         d="m 16.235534,12.042362 q 0,-0.03 0.021,-0.0525 0.0225,-0.0225 0.054,-0.0225 h 0.5205 v -0.282 q 0,-0.03 -0.024,-0.0525 -0.0225,-0.024 -0.0525,-0.024 h -0.2955 q -0.0315,0 -0.054,-0.021 -0.021,-0.0225 -0.021,-0.054 0,-0.0315 0.021,-0.054 0.0225,-0.0225 0.054,-0.0225 h 0.2955 q 0.0315,0 0.054,-0.0225 0.0225,-0.0225 0.0225,-0.0525 v -0.282 h -0.5205 q -0.0315,0 -0.054,-0.0225 -0.021,-0.0225 -0.021,-0.054 0,-0.03 0.021,-0.0525 0.0225,-0.0225 0.054,-0.0225 h 0.5205 q 0.06,0 0.105,0.045 0.0465,0.045 0.0465,0.1065 v 0.282 q 0,0.087 -0.06,0.1515 0.06,0.0645 0.06,0.1515 v 0.282 q 0,0.0615 -0.0465,0.1065 -0.045,0.045 -0.105,0.045 h -0.5205 q -0.0315,0 -0.054,-0.0225 -0.021,-0.0225 -0.021,-0.054 z" />
      <path
         id="path921"
         style="font-style:normal;font-variant:normal;font-weight:normal;font-stretch:normal;font-size:1.5px;font-family:OCRA;-inkscape-font-specification:OCRA;stroke-width:0.264583"
         d="m 17.319519,12.118862 v -0.51 q 0,-0.0615 0.045,-0.105 0.045,-0.045 0.1065,-0.045 h 0.444 v -0.3585 h -0.5205 q -0.0315,0 -0.054,-0.0225 -0.021,-0.0225 -0.021,-0.054 0,-0.03 0.021,-0.0525 0.0225,-0.0225 0.054,-0.0225 h 0.5205 q 0.06,0 0.105,0.045 0.0465,0.045 0.0465,0.1065 v 0.3585 q 0,0.06 -0.045,0.105 -0.045,0.045 -0.1065,0.045 h -0.444 v 0.3585 h 0.519 q 0.0315,0 0.054,0.0225 0.0225,0.0225 0.0225,0.0525 0,0.0315 -0.0225,0.054 -0.0225,0.0225 -0.054,0.0225 z" />
    </g>
  </g>
  <g
     transform="translate(-1.8828185e-4,-1.8828337e-4)"
     id="copper1">
    <g
       id="copper0">
      <circle
         stroke-width="0.4"
         r="0.80000001"
         fill="none"
         stroke="#ffbf00"
         cy="11.51"
         cx="3.8701882"
         id="connector2pin" />
      <circle
         id="connector1pin"
         cx="24.070189"
         cy="11.51"
         stroke="#ffbf00"
         fill="none"
         r="0.80000001"
         stroke-width="0.4" />
    </g>
  </g>
</svg>
