<?xml version="1.0" encoding="UTF-8" standalone="no"?>
<svg
   xmlns:dc="http://purl.org/dc/elements/1.1/"
   xmlns:cc="http://creativecommons.org/ns#"
   xmlns:rdf="http://www.w3.org/1999/02/22-rdf-syntax-ns#"
   xmlns:svg="http://www.w3.org/2000/svg"
   xmlns="http://www.w3.org/2000/svg"
   xmlns:sodipodi="http://sodipodi.sourceforge.net/DTD/sodipodi-0.dtd"
   xmlns:inkscape="http://www.inkscape.org/namespaces/inkscape"
   sodipodi:docname="CR2032_schematic.svg"
   inkscape:version="1.0 (4035a4fb49, 2020-05-01)"
   id="svg8"
   version="1.1"
   viewBox="0 0 18 25.077616"
   height="25.077616mm"
   width="18mm">
  <defs
     id="defs2" />
  <sodipodi:namedview
     inkscape:window-maximized="0"
     inkscape:window-y="199"
     inkscape:window-x="287"
     inkscape:window-height="1032"
     inkscape:window-width="1296"
     inkscape:snap-object-midpoints="true"
     showgrid="false"
     inkscape:document-rotation="0"
     inkscape:current-layer="svg8"
     inkscape:document-units="mm"
     inkscape:cy="87.947378"
     inkscape:cx="38.881068"
     inkscape:zoom="2.8"
     inkscape:pageshadow="2"
     inkscape:pageopacity="0.0"
     borderopacity="1.0"
     bordercolor="#666666"
     pagecolor="#ffffff"
     id="base" />
  <metadata
     id="metadata5">
    <rdf:RDF>
      <cc:Work
         rdf:about="">
        <dc:format>image/svg+xml</dc:format>
        <dc:type
           rdf:resource="http://purl.org/dc/dcmitype/StillImage" />
        <dc:title></dc:title>
      </cc:Work>
    </rdf:RDF>
  </metadata>
  <g
     transform="translate(-1.883246e-4,-0.45992639)"
     id="layer1"
     inkscape:groupmode="layer"
     inkscape:label="Ebene 1">
    <rect
       y="3.0249999"
       x="0.024999974"
       height="19.950377"
       width="17.950377"
       id="rect842"
       style="fill:none;stroke:#000000;stroke-width:0.0496233;stroke-opacity:1" />
  </g>
  <text
     xml:space="preserve"
     style="font-size:0.79375px;line-height:1.25;font-family:sans-serif;stroke-width:0.264583"
     x="8.8304996"
     y="22.201763"
     id="text839"><tspan
       sodipodi:role="line"
       id="tspan837"
       x="8.8304996"
       y="22.201763"
       style="font-style:normal;font-variant:normal;font-weight:normal;font-stretch:normal;font-size:1.5px;font-family:OCRA;-inkscape-font-specification:OCRA;stroke-width:0.264583">-</tspan></text>
  <text
     xml:space="preserve"
     style="font-size:0.79375px;line-height:1.25;font-family:sans-serif;stroke-width:0.264583"
     x="8.7887392"
     y="4.7053051"
     id="text843"><tspan
       sodipodi:role="line"
       id="tspan841"
       x="8.7887392"
       y="4.7053051"
       style="font-style:normal;font-variant:normal;font-weight:normal;font-stretch:normal;font-size:1.5px;font-family:OCRA;-inkscape-font-specification:OCRA;stroke-width:0.264583">+</tspan></text>
  <g
     style="font-size:1.5px;line-height:1.25;font-family:sans-serif;stroke-width:0.264583"
     id="text847"
     aria-label="2 x CR2032">
    <path
       id="path856"
       style="font-style:normal;font-variant:normal;font-weight:normal;font-stretch:normal;font-size:1.5px;font-family:OCRA;-inkscape-font-specification:OCRA;stroke-width:0.264583"
       d="m 3.3112389,12.840113 v -0.51 q 0,-0.0615 0.045,-0.105 0.045,-0.045 0.1065,-0.045 h 0.444 v -0.3585 h -0.5205 q -0.0315,0 -0.054,-0.0225 -0.021,-0.0225 -0.021,-0.054 0,-0.03 0.021,-0.0525 0.0225,-0.0225 0.054,-0.0225 h 0.5205 q 0.06,0 0.105,0.045 0.0465,0.045 0.0465,0.1065 v 0.3585 q 0,0.06 -0.045,0.105 -0.045,0.045 -0.1065,0.045 h -0.444 v 0.3585 h 0.519 q 0.0315,0 0.054,0.0225 0.0225,0.0225 0.0225,0.0525 0,0.0315 -0.0225,0.054 -0.0225,0.0225 -0.054,0.0225 z" />
    <path
       id="path858"
       style="font-style:normal;font-variant:normal;font-weight:normal;font-stretch:normal;font-size:1.5px;font-family:OCRA;-inkscape-font-specification:OCRA;stroke-width:0.264583"
       d="m 5.4792076,12.763613 q 0,-0.0285 0.015,-0.048 l 0.2595,-0.312 -0.2415,-0.291 q -0.018,-0.0225 -0.018,-0.048 0,-0.0315 0.0225,-0.054 0.0225,-0.0225 0.054,-0.0225 0.0345,0 0.0585,0.0285 l 0.2235,0.2685 0.222,-0.2685 q 0.024,-0.0285 0.0585,-0.0285 0.0315,0 0.054,0.0225 0.0225,0.0225 0.0225,0.054 0,0.0255 -0.018,0.048 l -0.2415,0.291 0.2595,0.312 q 0.0165,0.021 0.0165,0.048 0,0.0315 -0.0225,0.054 -0.0225,0.0225 -0.054,0.0225 -0.036,0 -0.0585,-0.027 l -0.2385,-0.2895 -0.24,0.2895 q -0.0225,0.027 -0.0585,0.027 -0.0315,0 -0.054,-0.0225 -0.021,-0.0225 -0.021,-0.054 z" />
    <path
       id="path860"
       style="font-style:normal;font-variant:normal;font-weight:normal;font-stretch:normal;font-size:1.5px;font-family:OCRA;-inkscape-font-specification:OCRA;stroke-width:0.264583"
       d="m 7.6471764,12.255113 q 0,-0.0795 0.036,-0.1545 l 0.1515,-0.306 q 0.024,-0.054 0.0795,-0.0885 0.057,-0.036 0.1245,-0.036 h 0.279 q 0.0315,0 0.054,0.0225 0.0225,0.0225 0.0225,0.0525 0,0.0315 -0.0225,0.054 -0.0225,0.0225 -0.054,0.0225 h -0.279 q -0.0465,0 -0.066,0.042 l -0.1545,0.3045 q -0.0195,0.042 -0.0195,0.087 0,0.045 0.0195,0.087 l 0.1545,0.3045 q 0.0195,0.042 0.066,0.042 h 0.279 q 0.0315,0 0.054,0.0225 0.0225,0.0225 0.0225,0.0525 0,0.0315 -0.0225,0.054 -0.0225,0.0225 -0.054,0.0225 h -0.279 q -0.066,0 -0.1215,-0.036 -0.054,-0.036 -0.081,-0.09 -0.111,-0.2115 -0.153,-0.3045 -0.036,-0.0765 -0.036,-0.1545 z" />
    <path
       id="path862"
       style="font-style:normal;font-variant:normal;font-weight:normal;font-stretch:normal;font-size:1.5px;font-family:OCRA;-inkscape-font-specification:OCRA;stroke-width:0.264583"
       d="m 8.7311608,12.763613 v -1.0935 h 0.519 q 0.093,0 0.1605,0.0675 0.0675,0.0675 0.0675,0.1605 v 0.078 q 0,0.093 -0.069,0.1605 -0.0675,0.0675 -0.159,0.0675 h -0.087 l 0.3045,0.522 q 0.0105,0.021 0.0105,0.0375 0,0.0315 -0.0225,0.054 -0.0225,0.0225 -0.054,0.0225 -0.0435,0 -0.066,-0.0375 l -0.3495,-0.5985 h -0.1035 v 0.5595 q 0,0.0315 -0.0225,0.054 -0.0225,0.0225 -0.054,0.0225 -0.0315,0 -0.054,-0.0225 -0.021,-0.0225 -0.021,-0.054 z m 0.1515,-0.711 h 0.3675 q 0.03,0 0.0525,-0.0225 0.024,-0.024 0.024,-0.054 v -0.078 q 0,-0.0315 -0.024,-0.054 -0.0225,-0.0225 -0.0525,-0.0225 h -0.3675 z" />
    <path
       id="path864"
       style="font-style:normal;font-variant:normal;font-weight:normal;font-stretch:normal;font-size:1.5px;font-family:OCRA;-inkscape-font-specification:OCRA;stroke-width:0.264583"
       d="m 9.8151451,12.840113 v -0.51 q 0,-0.0615 0.045,-0.105 0.045,-0.045 0.1065,-0.045 h 0.4439999 v -0.3585 H 9.8901451 q -0.0315,0 -0.054,-0.0225 -0.021,-0.0225 -0.021,-0.054 0,-0.03 0.021,-0.0525 0.0225,-0.0225 0.054,-0.0225 h 0.5204999 q 0.06,0 0.105,0.045 0.0465,0.045 0.0465,0.1065 v 0.3585 q 0,0.06 -0.045,0.105 -0.045,0.045 -0.1065,0.045 H 9.9666451 v 0.3585 h 0.5189999 q 0.0315,0 0.054,0.0225 0.0225,0.0225 0.0225,0.0525 0,0.0315 -0.0225,0.054 -0.0225,0.0225 -0.054,0.0225 z" />
    <path
       id="path866"
       style="font-style:normal;font-variant:normal;font-weight:normal;font-stretch:normal;font-size:1.5px;font-family:OCRA;-inkscape-font-specification:OCRA;stroke-width:0.264583"
       d="m 10.89913,12.688613 v -0.867 q 0,-0.0615 0.045,-0.1065 0.045,-0.045 0.1065,-0.045 h 0.444 q 0.06,0 0.105,0.045 0.0465,0.045 0.0465,0.1065 v 0.867 q 0,0.0615 -0.0465,0.1065 -0.045,0.045 -0.105,0.045 h -0.444 q -0.0615,0 -0.1065,-0.045 -0.045,-0.045 -0.045,-0.1065 z m 0.1515,0 h 0.444 v -0.867 h -0.444 z" />
    <path
       id="path868"
       style="font-style:normal;font-variant:normal;font-weight:normal;font-stretch:normal;font-size:1.5px;font-family:OCRA;-inkscape-font-specification:OCRA;stroke-width:0.264583"
       d="m 11.983114,12.763613 q 0,-0.03 0.021,-0.0525 0.0225,-0.0225 0.054,-0.0225 h 0.5205 v -0.282 q 0,-0.03 -0.024,-0.0525 -0.0225,-0.024 -0.0525,-0.024 h -0.2955 q -0.0315,0 -0.054,-0.021 -0.021,-0.0225 -0.021,-0.054 0,-0.0315 0.021,-0.054 0.0225,-0.0225 0.054,-0.0225 h 0.2955 q 0.0315,0 0.054,-0.0225 0.0225,-0.0225 0.0225,-0.0525 v -0.282 h -0.5205 q -0.0315,0 -0.054,-0.0225 -0.021,-0.0225 -0.021,-0.054 0,-0.03 0.021,-0.0525 0.0225,-0.0225 0.054,-0.0225 h 0.5205 q 0.06,0 0.105,0.045 0.0465,0.045 0.0465,0.1065 v 0.282 q 0,0.087 -0.06,0.1515 0.06,0.0645 0.06,0.1515 v 0.282 q 0,0.0615 -0.0465,0.1065 -0.045,0.045 -0.105,0.045 h -0.5205 q -0.0315,0 -0.054,-0.0225 -0.021,-0.0225 -0.021,-0.054 z" />
    <path
       id="path870"
       style="font-style:normal;font-variant:normal;font-weight:normal;font-stretch:normal;font-size:1.5px;font-family:OCRA;-inkscape-font-specification:OCRA;stroke-width:0.264583"
       d="m 13.067098,12.840113 v -0.51 q 0,-0.0615 0.045,-0.105 0.045,-0.045 0.1065,-0.045 h 0.444 v -0.3585 h -0.5205 q -0.0315,0 -0.054,-0.0225 -0.021,-0.0225 -0.021,-0.054 0,-0.03 0.021,-0.0525 0.0225,-0.0225 0.054,-0.0225 h 0.5205 q 0.06,0 0.105,0.045 0.0465,0.045 0.0465,0.1065 v 0.3585 q 0,0.06 -0.045,0.105 -0.045,0.045 -0.1065,0.045 h -0.444 v 0.3585 h 0.519 q 0.0315,0 0.054,0.0225 0.0225,0.0225 0.0225,0.0525 0,0.0315 -0.0225,0.054 -0.0225,0.0225 -0.054,0.0225 z" />
  </g>
  <rect
     transform="rotate(90.118086)"
     style="fill:#b3b3b3;stroke:none;stroke-width:0.264583"
     id="connector2pin"
     width="2.5400002"
     height="0.1"
     x="22.51824"
     y="-9.4264555" />
  <rect
     transform="rotate(90.118086)"
     style="fill:#b3b3b3;stroke:none;stroke-width:0.264583"
     id="connector1pin"
     width="2.5400002"
     height="0.1"
     x="-0.019182183"
     y="-9.4072552" />
</svg>
